<?xml version="1.0" encoding="utf-8"?>
<!-- Generator: Adobe Illustrator 26.3.1, SVG Export Plug-In . SVG Version: 6.00 Build 0)  -->
<svg id="hanger_x5F_background_xA0_Image"
				 xmlns="http://www.w3.org/2000/svg" xmlns:xlink="http://www.w3.org/1999/xlink" x="0px" y="0px" viewBox="0 0 1920 1080"
				 xml:space="preserve">
<style type="text/css">
	.st0{fill:#FEFEFE;}
	.st1{fill:#010101;}
	.st2{fill:#020202;}
	.st3{fill:#040404;}
	.st4{fill:#050505;}
	.st5{fill:#5E5E5E;}
	.st6{fill:#FFFFFF;}
	.st7{fill:#CDCDCD;}
	.st8{fill:#CFCFCF;}
	.st9{fill:#F39200;}
	.st10{fill:#CECECE;}
	.st11{fill:#F69300;}
	.st12{fill:#FE9800;}
	.st13{fill:#FDFDFD;}
	.st14{fill:#FAFAFA;}
	.st15{fill:#FBFBFB;}
	.st16{fill:#FCFCFC;}
	.st17{fill:#F89500;}
	.st18{fill:#FC9700;}
	.st19{fill:#F9F9F9;}
	.st20{fill:#F19100;}
	.st21{fill:#F79400;}
	.st22{fill:#F49300;}
	.st23{fill:#FA9600;}
	.st24{fill:#F1F1F1;}
	.st25{fill:#F8F8F8;}
	.st26{fill:#DFDFDF;}
	.st27{fill:#E1E1E1;}
	.st28{fill:#ECECEC;}
	.st29{fill:#E9E9E9;}
	.st30{fill:#EAEAEA;}
	.st31{fill:#EDEDED;}
	.st32{fill:#D8D8D8;}
	.st33{fill:#E0E0E0;}
	.st34{fill:#DDDDDD;}
	.st35{fill:#E4E4E4;}
	.st36{fill:#AEAEAE;}
	.st37{fill:#F0F0F0;}
	.st38{fill:#D0D0D0;}
	.st39{fill:#D3D3D3;}
	.st40{fill:#0A0A0A;}
	.st41{fill:#D1D1D1;}
	.st42{fill:#D2D2D2;}
	.st43{fill:#F5F5F5;}
</style>
				<path class="st0" d="M0,0c640,0,1280,0,1920,0c0,360,0,720,0,1080c-640,0-1280,0-1920,0C0,720,0,360,0,0z"/>
				<path d="M1819.4,545.6c0,157,0,312.3,0,467.7c0,4,0,8-0.1,12c-0.1,2.8-1.1,3.5-3.9,3.7c-21.4,1.5-42.8,0.7-64.3,0.8
	c-76.8,0.1-153.6,0.1-230.4,0c-10.7,0-21.4-0.4-32.1-0.4c-325.6,0.1-651.2,0.1-976.7,0.2c-7,0-14.1,0.1-21.1,0.3
	c-0.9,0-1.6-0.2-2.1-0.8c-1.6-2-3.4-3.8-4.8-5.9c-4-6.2-7.9-12.4-11.6-18.8c-8.5-15-16.8-30.1-25.3-45.2c-1.2-2.2-1.7-4.8-3.7-6.6
	c-2.4,0.1-4.8,0.1-7.2,0.2c-17.7,1-35.5,0.6-53.3,0.6c-95.4,0-190.7,0-286.1,0c-2.4,0-4.8,0-7.2-0.1c-2.9-0.2-3.7-1-4.1-3.7
	c-0.3-2.1-0.5-4.1-0.5-6.2c-0.2-13.9-0.4-27.8-0.4-41.8c0-246.6-0.1-493.1-0.2-739.6c0-11,0.2-22.1,0.1-33.1c0-4,1.1-7.1,4.2-9.7
	c2.3-2,4.5-4.1,6.7-6.1c11.9-10.7,23.7-21.5,35.6-32.2c7.2-6.5,14.5-13.1,21.8-19.6c0.6-0.5,1.2-1.1,1.8-1.6
	c1.5-1.1,3.1-1.7,4.9-0.6c1.6,1,3.4,0.7,5.1,0.7c15.8,0,31.7,0.1,47.5,0.1c49.3-0.2,98.5-0.4,147.8-0.6c26.4-0.1,52.8-0.1,79.2-0.2
	c2,0,4.2,0.3,6-1.1c0.4-0.3,1.4-0.2,1.7,0.1c1.4,1.1,3,1,4.6,1c1.4,0,2.9,0,4.3,0c102.9,0.1,205.7,0.1,308.6,0.2
	c44.2,0,88.3,0.1,132.5,0.1c9.9,0,19.8,0,29.8-0.1c1.6,0,3.1-0.4,4.7-0.5c0.8-0.1,1.7-0.4,2.3-0.1c2.3,1.1,4.7,0.6,7.1,0.6
	c218.2,0,436.4,0,654.7,0c71,0,142.1,0,213.1,0c1,0,1.9,0,2.9,0c2.8-0.2,5.2,0.2,5.5,3.7c2.6,2.4,2.2,5.5,2.2,8.5
	c0.1,95,0.2,190.1,0.2,285.1c0,48.3,0,96.6-0.2,144.9C1818.9,516.8,1820,532,1819.4,545.6z"/>
				<path d="M209.1,1022.3c-2,1-4.1,0.7-6.2,0.8c-3.2,0-3.2,0-3.2-3.2c-0.1-7.5-0.1-15-0.2-22.6c0-1.4-0.1-2.9-0.4-4.3
	c-0.4-1.7-2-2.4-3.8-1.8c-0.8,0.3-1.5,0.7-1.5,1.7c0,1.1,0,2.2,0,3.4c0,7.2,0.1,14.4,0.1,21.6c0,1.1,0,2.2,0,3.4
	c0,0.9-0.6,1.4-1.4,1.6c-0.5,0.1-0.9,0.2-1.4,0.2c-8,0-6.7,1.3-6.8-6.2c-0.1-6.6-0.1-13.1-0.2-19.7c0-1.4-0.1-2.9-0.4-4.3
	c-0.3-1.5-1.4-2.1-2.8-1.9c-1.5,0.2-2.5,1.1-2.5,2.4c0,2.2,0,4.5,0,6.7c0,6.7,0.1,13.4,0.1,20.2c0,2.3-0.5,2.8-2.8,2.9
	c-1.8,0.1-3.5,0.1-5.3,0.1c-1.3,0-1.7-0.7-1.7-1.8c0-3.2,0-6.4-0.1-9.6c-0.1-7.5-0.2-15-0.3-22.6c0-3.2,0.1-3.5,3.2-4.3
	c5.5-1.4,10.9-2.4,16.5-0.1c0.9,0.4,2.2,0,3.2-0.3c3.7-1.1,7.5-1.5,11.4-0.8c3.2,0.6,5.3,2.2,5.9,5.4c0.3,1.4,0.6,2.8,0.6,4.3
	c0.1,9.1,0.1,18.2,0.2,27.4C209.4,1021.3,209.2,1021.8,209.1,1022.3z"/>
				<path class="st1" d="M401.9,1006.8c1.1-6.5,2.1-12.9,3.2-19.4c0.5-3.1,0.8-3.3,3.6-3.3c1.7,0,3.5,0.2,5.2,0.3c0.4,1.7,1,3.3,1.3,5
	c1,5.5,1.9,11,2.9,17c0.5-0.9,1-1.4,1.1-1.9c0.8-5.4,1.5-10.8,2.3-16.1c0.1-0.8,0.2-1.6,0.4-2.4c0.4-1.9,0.9-2.4,2.8-2.6
	c0.6-0.1,1.3-0.1,1.9-0.1c5.8,0.1,6.3-1.1,4.7,5.4c-2.1,9-4,18.1-6,27.1c-0.3,1.6-0.8,3.1-1.1,4.7c-0.3,1.5-1.3,2.1-2.7,2.1
	c-1.3,0-2.6,0.2-3.8,0.1c-3.6-0.1-4.9-1.1-5.8-4.5s-1.6-6.8-2.5-10.8c-0.9,4.1-1.6,7.7-2.4,11.3c-0.2,0.8-0.3,1.6-0.6,2.3
	c-0.2,0.8-0.7,1.4-1.7,1.4c-2.1,0.1-4.2,0.2-6.2,0.2c-2.1,0-3.2-1.2-3.9-3c-0.4-1-0.7-2.1-0.9-3.2c-2.2-10-4.5-19.9-6.7-29.9
	c-0.1-0.5-0.3-1-0.2-1.4c0.2-0.5,0.6-1.4,0.9-1.4c3-0.2,6-0.4,9-0.3c0.4,0,1.1,1.1,1.2,1.8c0.5,2.8,0.9,5.7,1.3,8.5
	c0.4,3.2,0.8,6.3,1.2,9.5c0.2,1.2,0.5,2.4,0.8,3.7C401.6,1006.9,401.7,1006.8,401.9,1006.8z"/>
				<path d="M225.6,1023.2c0,3.9,0,7.6,0,11.2c0,3.3-0.1,3.4-3.5,3.6c-1.4,0.1-2.9,0.1-4.3-0.1c-1-0.1-1.7-0.9-1.8-1.9
	c-0.1-0.9-0.1-1.9-0.1-2.9c-0.1-14.4-0.3-28.7-0.4-43.1c0-4,0-4,3.9-5.3c3.7-1.2,7.4-1.9,11.3-1.5c6.4,0.6,10.2,4,11.3,10.4
	c1.2,7.2,0.6,14.3-1.3,21.3c-0.5,1.8-1.4,3.6-2.5,5.1c-2.1,3.3-5.2,4.5-9.1,3.9C228,1023.8,227,1023.5,225.6,1023.2z"/>
				<path d="M335.1,984.1c1.5-0.5,2.7-0.8,3.8-1.2c2.2-0.8,4.4-0.9,6.6-0.7c2.6,0.2,4.5,1.5,5.2,4.2c0.4,1.5,0.7,3.1,0.7,4.7
	c0.1,9.6,0.1,19.2,0.1,28.8c0,1.9-0.5,2.4-2.2,2.4c-2.2,0.1-4.5,0.1-6.7,0c-0.4,0-1.1-0.7-1.2-1.2c-0.2-1.1-0.1-2.2-0.1-3.3
	c0-6.6,0.1-13.1,0-19.7c0-1.9-0.2-3.8-0.4-5.7c-0.2-1.7-1.3-2.4-3.1-2.1c-0.5,0.1-0.9,0.2-1.4,0.3c-0.9,0.2-1.4,0.7-1.4,1.7
	c0,1.1,0,2.2,0,3.4c0,7.2,0,14.4,0,21.6c0,1.1,0,2.2,0,3.4c-0.1,0.9-0.6,1.5-1.5,1.6c-2.4,0.1-4.8,0.2-7.2,0.1c-0.4,0-1-0.8-1.1-1.3
	c-0.2-1.1-0.1-2.2-0.1-3.3c0-15.5,0.1-31,0.1-46.5c0-4.7-0.7-6.3,6.2-6.3c0.5,0,1,0,1.4,0c2,0.1,2.2,0.1,2.2,2.2c0,4,0,8,0,12
	C335.1,980.6,335.1,982.2,335.1,984.1z"/>
				<path class="st1" d="M273.9,1008.1c0.2,6.6,1.7,7.7,7.7,6.9c2.3-0.3,4.6-0.9,7.3-1.5c0.3,2,0.6,3.8,0.8,5.7c0.1,1.6-0.4,2.3-2,2.9
	c-4.9,1.7-10,2-15.1,1.1c-3-0.5-5.2-2.4-6.5-5.2c-0.7-1.6-1.4-3.3-1.7-5c-0.9-6.5-1.1-13.1,0.5-19.5c0.4-1.4,0.9-2.7,1.5-4
	c1.6-3.2,4.1-5.4,7.6-6c2.6-0.5,5.4-0.5,8.1-0.2c3,0.4,5.2,2.3,6.5,5.1c0.5,1.1,1,2.4,1.1,3.6c0.5,4.1,0.5,8.3-0.4,12.4
	c-0.5,2.2-0.6,2.4-2.8,2.6c-3.2,0.3-6.4,0.6-9.6,0.8C276.1,1007.9,275.2,1008,273.9,1008.1z"/>
				<path class="st1" d="M308.9,981.8c2.9,0.5,5.6,0.7,8.2,1.3c4.1,1,3.6,4.6,1.7,7.1c-0.3,0.4-1.2,0.5-1.7,0.4c-2.3-0.9-4.7-1.1-7.1-1
	c-0.8,0-1.6,0.2-2.3,0.5c-0.8,0.3-1.4,1.8-1,2.4c0.8,1.2,1.6,2.4,2.6,3.4c2.4,2.6,4.9,5,7.4,7.5c2.5,2.6,3.5,5.6,3.3,9.2
	c-0.2,3.7-1.8,6.4-4.9,8.3c-0.7,0.4-1.4,0.8-2.1,1.1c-4.8,1.7-9.7,1.8-14.6,0.5c-3.4-0.9-4.1-2.3-3.2-5.7c0.2-0.6,0.3-1.3,0.7-1.8
	c0.3-0.4,1-0.8,1.5-0.8c1.1,0.1,2.1,0.7,3.2,0.8c1.4,0.2,2.9,0.4,4.3,0.3c3.2-0.2,4.5-2.3,3.3-5.3c-0.5-1.1-1.4-2.2-2.2-3.1
	c-2.2-2.3-4.6-4.5-6.7-6.9c-1.4-1.7-2.8-3.5-3.7-5.5c-2.2-5.1,0.1-10.2,5.5-11.7C303.5,982.3,306.3,982.2,308.9,981.8z"/>
				<path class="st2" d="M373.3,995.4c0.3-1.6,0.7-3.1,0.9-4.7c0-0.3-0.4-0.8-0.8-1c-0.3-0.1-0.9,0-1.2,0.3c-0.3,0.3-0.5,0.8-0.6,1.3
	c-0.8,2.7-1.5,5.5-2.5,8.7c-0.7-1.6-0.4-2.8-0.2-3.9c0.2-1.4,0.6-2.8,0.6-4.3c0-0.5-0.5-1.1-0.9-1.5s-1.5,0.3-1.6,1.2
	c-0.5,3-1,6-1.4,9c-1.2,0.1-1.4-0.7-1.4-1.5c0.1-1.3,0.3-2.5,0.3-3.8c0-0.5-0.6-0.9-1-1.4c-0.4,0.4-1.1,0.8-1.2,1.2
	c-0.3,1.1-0.4,2.2-0.3,3.3c0.4,5-1.1,9.8-1.1,14.8c0,1.1-0.5,2.2-0.9,3.2c-0.1,0.4-0.5,0.9-0.9,1c-0.9,0.3-1-0.6-1.1-1.1
	c-2.1-7.9-2.5-15.8-0.3-23.7c2.5-8.9,11.1-12.9,19.7-9.4c2.1,0.9,3.8,2.3,4.9,4.4c0.5,1,1,2,1.3,3.1c1.9,7.7,2,15.5-0.1,23.2
	c-1.9,6.9-6.3,9.9-13.5,9.8c-1.1,0-2.2-0.1-3.3-0.3c-0.7-0.1-1.2-0.6-1-1.3c0.9-2.8,2-5.5,4.9-6.7c4.4-1.9,7.1-5.8,11-8.3
	c0.2-0.1,0.3-0.6,0.2-0.8c-0.3-0.4-0.7-0.9-1-0.8c-1.1,0.2-2.1,0.5-3.1,0.9c-1.1,0.5-2.1,2.4-3.2,1.6c-1.5-1.1-0.3-2.9,0.1-4.3
	c0.8-2.6,2-5.1,2.9-7.6c0.3-0.9,0.6-1.8,0.7-2.7c0-0.3-0.3-1-0.7-1.1c-0.3-0.1-1.1,0.1-1.2,0.4c-0.8,1.6-1.5,3.2-2.2,4.8
	C372.4,997.4,373.1,996.2,373.3,995.4z"/>
				<path class="st1" d="M135.8,983.7c2.9,0.4,5.6,0.6,8.2,1.3c3.3,0.9,4.1,4.7,1.6,7.1c-0.3,0.3-1.2,0.3-1.7,0.2
	c-2.2-0.2-4.4-0.6-6.6-0.8c-0.8-0.1-1.6,0.2-2.3,0.4c-0.9,0.3-1.5,1.6-1,2.4c0.7,1.1,1.4,2.1,2.3,3.1c2.4,2.5,5,5,7.5,7.5
	c2.6,2.7,3.8,5.8,3.5,9.6c-0.2,3.1-1.6,5.5-4,7.3c-1.8,1.4-3.9,2.3-6.2,2.5c-3.2,0.2-6.4,0.2-9.6,0c-1.1,0-2.2-0.5-3.2-1
	c-1.3-0.6-1.9-1.7-1.7-3.1c0.1-0.9,0.3-1.9,0.6-2.8c0.4-1.3,1.1-1.8,2.5-1.3c2.3,0.8,4.7,1,7.1,0.8c2.7-0.2,3.9-2.1,2.9-4.7
	c-0.4-1.1-1.2-2.2-2.1-3.1c-2.3-2.5-4.7-4.8-7.1-7.2c-1.6-1.6-2.9-3.4-3.7-5.5c-1.8-4.9,0.3-9.6,5.2-11.1
	C130.4,984.3,133.2,984.1,135.8,983.7z"/>
				<path class="st3" d="M258.1,994.2c0,7.7,0,15.3,0,23c0,1.1,0,2.2,0,3.3s-0.5,1.8-1.7,1.9c-0.6,0.1-1.3,0.1-1.9,0.1
	c-7.2,0-6.1,1.2-6.2-5.8c-0.2-13.6-0.3-27.1-0.5-40.7c0-1,0-1.9,0-2.9c-0.1-6-0.3-6.8,7.1-7.1c0.2,0,0.3,0,0.5,0
	c1.6,0,2.1,0.4,2.2,1.8c0.1,0.8,0,1.6,0,2.4c0,8,0,15.9,0,23.9C257.8,994.2,258,994.2,258.1,994.2z"/>
				<path class="st3" d="M162.1,1004c0,5.4,0,10.9,0,16.3c0,2.4-0.5,3-2.7,3c-8.5,0-7.2,1.5-7.4-6.7c-0.2-8.3-0.2-16.6-0.2-24.9
	c0-1.1-0.1-2.2,0-3.4c0.2-1.9,1-2.9,3-3.2c1.6-0.2,3.2-0.2,4.8-0.2c1.9,0,2.2,0.3,2.2,2.3c0,5.6,0,11.2,0,16.8
	C162,1004,162,1004,162.1,1004z"/>
				<path class="st4" d="M161.7,971.5c-0.1,1-0.1,1.9-0.3,2.9c-0.7,3.1-3.6,4.8-6.6,3.7c-0.8-0.3-1.7-1-2.1-1.8c-1.2-2.2-1.2-4.6-0.4-7
	c1-2.9,4.8-4,7.6-2.5c0.6,0.3,1.1,1.2,1.4,1.9C161.5,969.6,161.5,970.6,161.7,971.5z"/>
				<path class="st5" d="M373.3,995.4c0.3,0.7,0.6,1.3,1,2c-0.3,1-0.6,2.1-1,3.1c-0.1,0.3-0.7,0.8-1.1,0.7c-0.9-0.1-0.7-0.9-0.5-1.4
	C372.2,998.2,372.7,996.8,373.3,995.4z"/>
				<path class="st6" d="M1473.5,908.3h333.6V721.5H1627V555.4c0-12.1-0.1-12.1-12-12.1H945.4c-11.7,0-11.9,0.1-11.8,11.7
	c0.7,59-1.3,117.9,1,176.9c0.8,3,0.2,6.5-0.1,9.7c0.2-2.4,0.3-4.8,0.2-7.2c0-0.9-0.1-1.7-0.1-2.5c-0.2-0.9-0.5-1.7-1-2.5
	c-2.8-4.7-2.7-9.4-2.7-14.3V77.7c0-2.2,0.1-4.5,0-6.7c0-1.7,0-3.5-1.2-5c-12.9-1.6-11.2-0.4-11.4,9.2v4.3
	c0.6,142.3-0.9,284.5,0.8,426.7c0.8,70.4,0.1,140.8,0.1,211.2c0,1.2,0.1,2.5-0.1,3.8c-0.2,1.2,0,3-1.8,2.9c-1.7-0.1-1.6-1.8-1.7-3
	c-0.4-4.7-1.1-9.2-1.1-13.9c0.1-18.8,0-37.5,0-56.2c0-2,0.1-3.9-0.2-5.8c-0.5-4.1-3.5-6.2-8.3-6c-4.4,0.2-3.8,3.5-4.1,6.3
	c-0.1,1.6,0,3.2,0,4.8v65.8c0,1.6,0,3.2-0.1,4.8c-0.2,2.3-1.3,3.5-3.6,3.7c-2,0.1-3.9,0.1-5.8,0c-12.5-0.8-24.9-0.9-37.4-0.7
	c-9,0.2-14.2,5.4-13.5,14.3c0.8,10.5,1.2,21,2.4,31.5c1.8,15.9,3,17,18.8,17.6c3,0.1,4.8,0.9,4.9,4.3c0.5,11.7,12.6,22.7,28,20.5
	c6.2-0.9,6.2-0.9,6.2,5.3c0,0.8-0.1,1.6,0,2.4c0.3,3.9-1.6,4.9-5.3,4.4c-25.6-3.3-51.2-6-76.9-7.5c-19.4-1.1-38.7-1.8-58-2.4
	c-25.9-0.7-51.8,1.3-77.6,3c-11,0.7-22,1.8-32.9,3.9c-2.2,0.4-4.7,0.4-6.2,2.8c1.9,2.3,4.5,1.4,6.8,1.8c34.4-0.6,68.7,1,103,1
	c2.4,0,4.8-0.1,7.2,0.1c19.8,1.4,39.6,1.3,59.3,2.7c12.3,0.9,24.6,1.5,36.8,2.5c17.5,1.4,34.9,3.5,52.3,6c5.3-0.8,5.4-0.9,5.1-6.5
	c2,2.9,3.5,5.8,4.7,8.9c0.5,1.2,1.6,2.2,1.5,4c-5.4-1.3-10.4-2.5-15.4-3.4c-28.3-4.9-56.9-6.5-85.4-8.5c-21.8-1.5-43.7-1.9-65.6-2.8
	c-18.7-0.7-37.4-0.5-56.1-0.9c-20.5-0.5-40.9-0.8-61.4,0.6c-16.3,1.1-32.6,0.2-48.9,0.9c-21.7,0.9-43.4,1.8-65.1,3
	c-22.2,1.3-44.4,3.3-66.4,6.2c-9.5,1.3-19,2.7-28,6.3c-2.2,0.9-4.7,1.9-4.7,4.8c0,3,2.7,3.8,4.9,4.6c5.5,2.1,11.4,3.2,17.2,4.2
	c30.1,5.1,60.6,6.7,91.1,8.6c25.2,1.5,50.5,2.4,75.7,2.7c53.4,0.6,106.8,0.8,160.2-0.9c8.6-0.3,17.3-0.5,25.9-1
	c23.1-1.4,46.2-2.4,69.3-4.7c18.4-1.9,37-3.3,54.8-8.9c2.9-0.9,4.7-0.2,6.5,2.2c2.7,3.7,2.7,8.2,3.7,12.3c1.2,2.2,3.7,1.6,5.4,2.8
	c0.8,0.6,1.6,1.2,1.5,2.3c-0.2,1-1.2,1-1.9,1.1c-3.2,0.3-4.5,2.1-4.5,5.1c0,1.5-0.6,2.8-1.6,3.9c-6.1,5.7-14,6.8-21.7,8.1
	c-40.4,7-81.4,8.3-122.2,10.5c-21,1.2-42.1,1.5-63.2,1.8c-45,0.7-90.1,0.6-135.2-0.9c-9.5-0.3-19.1-0.3-28.7-0.9
	c-24.3-1.5-48.5-2.4-72.7-4.7c-17-1.6-34-3.2-50.8-6.8c-8.9-1.9-16.4-5.3-19.6-14.7c-1.9-1.7-4.2-1.4-6.4-1.4
	c-4.1-0.1-8.3,0-12.4-0.1c-1.1,0-2.5,0.1-2.6-1.4c-0.1-1.2,1-1.8,2.2-2.1c1.9-0.4,3.8-0.2,5.7-0.3c4.3-0.3,8.9,1,13.1-1.1
	c1.7-2.3,1.3-4.9,1.2-7.4c-0.3-8.3-0.1-16.4,7.2-22.2c0.8-2.5,0.6-5.1,0.6-7.6v-61.3c0-4.4,0.7-8.6,3.7-12.6c0.2,2,0.1,3.6,0.1,5.2
	c0,22.4-0.1,44.7,0,67.1c0,2.6-0.6,5.5,2,7.5c3.8,0.7,7.3,0.5,9.9-2.9c1-2.6,0.7-5.4,0.7-8.1v-84.9c0-3.5,0.1-7,2-10.2
	c1.6-2.8,3.5-3.9,7-3.2c15.5,3.1,28.5-5.8,31.2-21.2c0.5-2.8,1.9-3.8,4.5-3.8c3.2,0,6.4,0.1,9.6-0.1c6.7-0.5,11-3.7,12.2-10.2
	c2.6-13.9,4.6-27.8,6.1-41.8c0.8-7.2-3.4-11.5-10.5-12.3c-2-0.3-3.9-0.2-5.8-0.2h-47.5c-8.9,0-8.9,0-8.9-9V232
	c0-2.8,0.5-5.8-1.5-8.3h-9.6c-1.8,2.1-1.5,4.8-1.5,7.3v400.3c0,2.6,0.1,5.2-0.4,7.7c-0.2,0.8-0.6,1.6-1.5,1.6c-1,0-1.3-0.8-1.5-1.6
	c-0.5-2.4-0.3-4.8-0.3-7.2V231c0-2.5,0.4-5.1-1.5-7.3c-5.4-0.1-10.9-0.2-16.3-0.2c-0.9,0-1.5,0.5-1.5,1.5c-0.1,2.6,0,5.1-0.1,7.7
	c-0.1,2.1-1.7,3.9-3.8,4.3c-1,0.2-2.2,0.2-3.3,0.2h-9.1c-1,0-1.8,0.2-2.4,1.1c-6.8,10.1-13.6,20.1-20.4,30.2c-1,1.4-1.7,3.2-3,4.3
	c-1.7,1.4-1.9,3.1-1.9,5.1c0.1,24.3,0.1,48.6,0.2,72.9v1.9c0,0.9,0.4,1.5,1.4,1.5h48.9c1.2,0,2.5-0.1,3.8-0.1c1.1,0,1.8,0.6,2.1,1.6
	c0.2,0.7,0.3,1.5,0.3,2.3c0.1,4.8,0.2,9.6,0.2,14.4c0,0.6,0,1.3-0.1,1.9c-0.3,1.9-1.3,2.8-3.2,2.8h-7.2c-2.1,0.1-2.4,0.3-2.4,2.6
	c0,2,0.1,4.1,0,6.2c-0.1,2.7-1.4,4.2-3.9,4.8c-1.2,0.3-2.5,0.4-3.8,0.4c-2.8,0.1-5.7,0.1-8.6,0c-1.2,0-2,0.4-2.7,1.5
	c-7,10.3-13.9,20.7-20.9,31c-0.6,0.9-1.1,2-1.9,2.7c-1.8,1.5-1.9,3.4-1.9,5.6c0.1,21.6,0.2,43.2,0.2,64.8c0,1-0.1,2,0.1,2.9
	c0.1,0.4,0.7,1,1.2,1.1c0.8,0.2,1.6,0.1,2.4,0.1h47c1,0,1.9-0.1,2.9-0.1c1.5,0,2.4,0.7,2.6,2.2c0.1,1,0.1,1.9,0.1,2.9
	c0,4,0.1,8,0.1,12c0,0.8,0.1,1.6,0,2.4c-0.2,2.7-1.1,3.5-3.9,3.6h-7.2c-1.2,0-1.8,0.5-1.8,1.7c0,2.2,0.1,4.5,0,6.7
	c-0.1,3.3-1.7,4.9-5,5.2c-1.2,0.1-2.3,0.1-3.4,0.1c-2.6,0.1-5.1,0.1-7.7,0c-1.5-0.1-2.3,0.5-3.1,1.7c-6.9,10.4-14.6,20.2-20.9,31
	c-0.4,0.9-0.9,1.7-1.6,2.4c-1.6,1.5-1.9,3.4-1.9,5.6v53.3c0,1,0,1.9,0.1,2.9c0,1,0.6,1.5,1.5,1.5h5.3c15.5-0.1,31-0.1,46.5-0.2
	c1.5,0,2.6,0.7,2.8,2.1c0.1,1,0.1,1.9,0.1,2.9c-0.2,5.4-0.5,10.8-0.7,16.2c-0.1,1.3-0.8,2-2.2,2c-2.8,0.1-5.5,0.1-8.2,0.1
	c-1.1,0-1.8,0.5-1.8,1.7c0,2.4,0.1,4.8,0,7.2c-0.1,2.6-1.8,4.4-4.5,4.7c-1.2,0.1-2.3,0.1-3.4,0.1c-2.8,0-5.5,0.1-8.2,0
	c-1.5-0.1-2.3,0.5-3.1,1.7c-3,4.5-6.1,8.9-9.2,13.4c-4.9,7.2-9.7,14.3-14.5,21.5c-0.5,0.6-0.7,1.5-0.7,2.2v13c0,1.1,0.5,1.8,1.7,1.8
	c2,0.1,3.9,0,5.8,0.2c1.6,0.1,3,1.4,2.9,2.7c-0.2,2.5-0.5,5-0.8,7.9c-1.8-1.4-3.2-2.6-4.7-3.8c-0.5-0.4-1-0.8-1.6-0.9
	c-3.8-0.6-7.5-1.5-11.4-1.2c-3.2,0.2-6.4,0.2-9.6,0.3c-2.1,0.1-2.2-0.6-2.6-2c-0.7-2.6-0.1-5.1-0.1-7.6v-60.4c0-2-0.3-2.3-2.2-2.3
	h-49.9c-1.1-0.1-1.8,0.4-1.8,1.6v1c0,2.9,0.2,3.1,2.9,3.1c2.6,0,5.1,0.1,7.7,0c1.6,0,2.7,0.7,3.8,1.8c1.4,1.3,1.7,3,1.7,4.8v12
	c0,0.9,0.6,1.5,1.5,1.5c2.8,0,5.5,0.1,8.2,0c1.8,0,3,0.9,4.1,2.1c1.1,1.3,1.5,2.8,1.5,4.5v10.6c0,1.1,0.6,1.8,1.7,1.8
	c2.4,0.1,4.8,0,7.2,0.1c3.2,0.1,5,1.6,5.8,4.7c0.7,2.6,0.4,3.9-2.6,2.9c-1.1-0.3-2.2-0.4-3.3-0.6c-9.7-1.1-14,2.7-14,12.2
	c0,0.8,0.1,1.6-0.4,2.3c-0.4,2.2-0.8,4.3-1.2,6.5c-2.1,3-5.3,3.2-8.5,3.6c-6.2,0.7-12.5,0.9-18.4,3.1c-5.7,2.2-8.1,6.3-7.3,12.4
	c0.8,5.8-0.7,11.4-1.1,17.1c-0.9,1.7-2.6,2.3-4.1,3.2c-2.7,1.6-5.5,3.2-7.9,5.4c-1.3,1.2-2.7,2.7-1.5,4.6c0.6,1,1.3,1.3,2.1,1.4
	c1.4-0.2,2.7-0.5,4-0.8c1-0.4,2-1.1,3-1.7c1.1-0.7,2-1.9,3.6-1.1c-2.1,1.3-4.3,2.2-6.6,2.8c-0.4,0.2-0.9,0.3-1.3,0.4
	c-0.9,0.2-1.8,0.5-2.7,0.4c-0.4,0.1-0.9,0.2-1.3,0.2c-6.5,0.9-13.1,1.2-19,4.4c-0.7,0.2-1.3,0.5-1.9,0.7c-1,0.6-2.2,0.1-3.1,0.7
	c-0.1-0.1-0.3-0.1-0.5,0c-2.7-1.6-5-0.7-7.2,1c-2.1,0.5-4.2,0.9-6.3,1.4c-1.8-0.3-3.5-0.1-5.2,0.4c-4.5,1.4-6.4,4.3-6,8.7
	c0.2,0.3,0.3,0.7,0.5,1.1c0.8,1.6,0.7,3-0.2,4.5c-1.5,2.4-1.5,4.8,0.1,7.2c0.1,1.7,0.3,3.4,0.4,5.3c-1.2,0.2-2.2,0.3-3.1,0.3h-79
	c-2.7,0-2.8,0-2.8,2.5v22.5c0,2.6,0.1,2.6,2.7,2.7h62.3c1.2,0,2.5,0,3.8,0.1c1,0.1,1.1,1,1.3,1.8c-0.5,1.3-0.7,2.7-1.1,4
	c-1.8,5.8-2.1,11.7,0.2,17.5c0.1,1.4,0.3,2.9,0.3,4.3s-0.5,1.8-2.1,1.9h-1.9c-33.1-0.1-66.2-0.2-99.3-0.3c-2.9-0.1-5.8-0.3-9-0.4
	c-0.1,1.8-0.2,3.7-0.2,5.6c-0.1,21-0.1,41.9-0.3,62.9c0,3.2,0.5,3.2,3.2,3.2h277.4c21.6,0,43.2,0.2,64.8,0.4c3.5,0,7,0.3,10.5,0.8
	c1.9,0.3,3.2,1,4.1,2.7c2.8,5.2,5.7,10.3,8.6,15.5c10.5,18.9,20.9,37.8,31.4,56.6h875.3c0.1,0,0.3-0.1,0.4-0.2
	c0.1-0.1,0.2-0.2,0.7-0.5v-5c0-7.2,0.1-14.4,0.1-21.6c0-1.9,0.6-3.9,0.1-5.6s-2-3.2-3.3-4.6c-2.9-3.3-4.6-7.6-8.7-10
	c-1.3-0.8-1.1-2.6-1.1-4c0-19.2,0.1-38.4,0.2-57.6c0-1.1,0.2-2.2,0.4-3.3c0.2-1.5,1.2-2.3,2.6-2.4c2-0.1,4.1-0.1,6.2-0.1
	c28.5,0,56.9-0.1,85.4-0.1h3.8 M933.7,753.1c-0.3,15.9,0,31.9-0.1,47.9c-2.2-3.6-2.4-7.6-2.7-11.6c-0.9-14,1.8-27.7,3.1-41.4
	C933.8,749.7,933.7,751.4,933.7,753.1z"/>
				<path class="st6" d="M934.5,741.6c0.2-2.4,0.3-4.8,0.2-7.2c0-0.9-0.1-1.7-0.1-2.5C935.4,734.9,934.8,738.4,934.5,741.6z"/>
				<path class="st7" d="M902.2,808.9c0.8-0.2,1.2,0.2,1.3,0.9c0.1,0.8,0.1,1.6,0.1,2.4c0,3.4,0,6.7,0,10.1c0.1,4.4-0.3,4.7-4.7,4.3
	c-6.2-0.7-12.3-1.8-18.4-2.6c-3.8-0.5-7.6-0.8-11.4-1.2c-4.7-0.5-9.5-1.1-14.2-1.7c-0.3,0-0.6-0.1-0.9-0.1
	c-5.4-0.4-10.8-0.7-16.2-1.1c-1.9-0.1-3.8-0.4-5.7-0.6c-1.3-0.1-2.5-0.2-3.8-0.3c-4.3-0.2-8.6,0.3-12.9-0.9
	c-0.9-0.2-1.9-0.1-2.9-0.1c-3.2,0-6.4,0.2-9.6-0.1c-10-1.1-20.1-0.3-30.1-1.1c-9-0.8-17.9-0.4-26.8-0.6c-3.7-0.1-7.3-0.3-11,0.7
	c-1,0.3-2.2,0.1-3.3,0.1c-4.5,0-9-0.2-13.4,0.2c-7,0.6-14,0.6-21,1.1c-4,0.3-8,0.2-11.9,0.9c-5,0.9-10.2,0.4-15.2,1.5
	c-3.1,0.7-6.3,0.4-9.5,1.1c-4.6,1-9.4,1.5-14.1,2.6c1.9,0.2,3.8,0.4,5.8,0.6c-0.6,2-2.3,2-3.9,2.2c-1.6,0.2-3.2,0.2-4.8,0.1
	c-24.8-0.5-49.5,0-74.2,1.1c-37.6,1.7-75.3,3.3-112.6,8.5c-2.8,0.4-5.7,1-8.5,1.3c-1.9,0.2-3.8,0.6-5.5-0.9c0-31.7,0-63.3,0-95
	V636.8c0-135,0-270,0-405c0-2.7,0-5.4,0-8.2c1-0.1,1.9-0.2,2.9-0.2c23.5-0.2,47-0.4,70.5-0.7c0.5,0,1-0.1,1.4,0
	c1.3,0.1,2.7,0.6,3.6-0.6c1.2-1.6,2.9-2.9,2.7-5.4c-0.2-3-0.1-6.1-0.1-9.1c0-1.6,0-3.1,0-4.9c-3.3-0.8-6.5-1.5-9.7-2.3
	c-0.5-0.1-1-0.8-1.1-1.3c-0.2-0.9-0.1-1.9-0.1-2.9c0-8.3,0-16.6,0-24.9c1.4-0.9,2.7-1,4.2-1c3.1,0,4.7-1.3,5.7-4.1
	c0.7-2.1,0.5-4.1-0.2-6.1c-0.6-1.8-1.6-3.1-3.4-3.8c-0.3-0.1-0.4-0.4-0.6-0.7c-0.3-0.7-1.4-0.9-1-2c1.7-1.7,3.6-1.3,5.1,0.1
	c3.2,2.8,5.9,6.4,5.1,10.7c-0.8,4.4-2.8,8.8-7.8,9.9c-4,0.9-5.1,3-4.9,6.7c0.2,3.8,0.1,7.6,0.1,11.4c-0.2,3.7,1.5,5,5.2,4.7
	c15.5-1.3,31.1-1.6,46.7-2.7c5.6-0.4,11.1-0.2,16.7-0.2c1.5,0,2.8,0.4,4,1.4c0.1,1.6,0.3,3.2,0.3,4.8c0,9.8,0,19.5,0,29.3
	c0,2.2,0.1,4.5,0.2,6.7c0.1,0.9,0,2.2,0.6,2.8c2.2,2.1,0.9,3.7-0.1,5.7c-5.1,9.6-6.8,19.9-5.7,30.6c0.5,4.7,2.3,8.9,5.6,12.5
	c1.2,1.3,2.4,1.9,4.1,1.9c4.5,0,9,0.1,13.4-0.1c1.9-0.1,3.8-0.6,5.6-1.2c0.7-0.2,1.4-0.9,1.7-1.6c1.4-2.9,2.5-5.9,3-9
	c1.4-9.8,0.6-19.5-2.1-29c-0.7-2.6-2-5-3.3-7.4c-0.6-1.2-1.1-2-0.1-3.4c0.7-0.9,0.8-2.4,0.8-3.6c0.1-13.3,0.2-26.5,0.2-39.8
	c0-7,0.1-14.1,0-21.1c-0.1-19.5-0.2-39-0.3-58.5c0-1.3,0-2.6,0-3.8c0-1.2,0.5-1.7,1.8-1.6c2.1,0,4.1,0.2,6.2,0.3
	c-5.1,1.8-5.6,5.7-5.6,10.5c0.1,22.5,0.2,44.9,0,67.4c0.8,5.1,1.2,5.5,7,5.2c35.6-2,71.3-0.4,107-0.9c3.3,0,6.8-0.3,9.5,2.5
	c0.1,1.6,0.3,3.2,0.3,4.7c0,10.1,0,20.1,0,30.2c0,2.2,0.1,4.5,0.2,6.7c0.1,1.1,0.1,2.6,0.8,3.2c1.8,1.6,1.1,2.8,0.2,4.5
	c-5.5,9.6-7.2,20-6.2,31c0.5,5,2.4,9.5,5.9,13.3c0.9,1,1.9,1.6,3.3,1.6c4.8,0,9.6,0.1,14.4-0.1c1.7-0.1,3.4-0.6,5.1-1.1
	c0.7-0.2,1.4-0.9,1.7-1.5c1.5-3,2.6-6.1,3.1-9.5c1.3-9.5,0.5-18.8-2-28c-0.6-2.1-1.5-4.2-2.4-6.2c-0.5-1.2-1.6-2.2-1.7-3.4
	c-0.1-0.9,0.9-1.9,1.2-2.9c0.3-1.1,0.3-2.2,0.3-3.3c0-13.6,0.1-27.2,0.1-40.7c0-23.5-0.1-47-0.1-70.5c0-0.5,0-1,0-1.4
	c0-1,0.7-1.4,1.6-1.4c1.6,0,3.2,0,4.8,0c1.4,0,2.3-0.6,3.2-1.7c1.9-2.4,2.8-4.9,2.7-7.9c-0.1-5.4-0.1-10.9-0.1-16.3
	c0-1.9-0.1-3.8-1.1-5.6c3.7-0.9,6.1,0.3,6,4.1c-0.2,7.6,0.4,15.4-1.3,22.9c-1.2,5.7-4.7,8-10.2,7.6c-3.3-0.2-3.3,1.8-3.3,4
	c-0.1,6.1,0,12.1,0,18.2c0,10.5,0.1,21.1,0,31.6c-0.1,3.6,1.6,4.9,5.2,5.2c11.9,1.2,23.9,1,35.9,1.7c16.7,1,33.5,2,50.2,3.4
	c17.7,1.4,35.3,3.4,52.8,6.5c3.9,0.7,4.8-1.1,4.8-4.4c0-9,0.1-17.9,0-26.9c-0.3-30,1.7-60.1,1-90.1c0-1.6,0-3.2,0.5-4.7
	c0.2-0.6,0.6-1,1.1-1.4c4.2-0.9,8.4-0.8,12.7-0.7c0.9,0,1.7,0.6,2.6,0.9c-1.1,0.3-1.5,0.3-2,0c-2.4,0-4.8-0.1-7.2,0
	c-1.5,0-2.1,0.5-2.1,2c-0.1,1.1,0,2.2,0,3.4c0,139.3,0.1,278.7,0.1,418c0,3.3-0.2,6.7,0.7,10c0.3,1.2,0.1,2.5,0.1,3.8
	c0,72.6,0,255.8,0,328.5c0,0.8,0,1.6,0,2.4c-0.1,2.6-0.4,2.9-3.2,2.9c-3,0-3.3-0.3-3.4-3.2c-0.1-3,0.1-116.6-0.8-119.6
	c-0.4-1.5-0.1-3.2-0.1-4.8c0-19.7,0-39.4,0-59c0-1.9,0-3.8,0-5.8c-0.1-2-0.8-3-2.7-3.4s-3.8-0.6-5.7-0.7c-0.3,0-0.9,0.5-1,0.8
	c-0.2,1.1-0.2,2.2-0.2,3.3c0,6.4,0,12.8,0,19.2c0,18.6,0,37.1,0,55.7c0,1.1,0,2.2,0,3.4"/>
				<path class="st6" d="M1419.8,329.3c0.2,0.3,0.3,0.6,0.5,0.8c1.1,1.1,1.5,2,0.5,3.7c-4.9,8.2-6.4,17.2-5.7,26.6
	c0.4,4.5,1.9,8.7,5.3,12c0.6,0.6,1.6,1.3,2.4,1.3c4.6,0.1,9.3,0.3,13.8-0.1c4.1-0.3,4.8-1,6.2-4.9c0.9-2.5,1.5-5.2,1.8-7.9
	c0.7-7.8,0-15.6-2.4-23.1c-0.6-2-1.4-3.9-2.6-5.6c-1.1-1.7-0.3-2.6,0.5-3.8c1.1-8.7,0.2-17.5,0.4-26.3c0.1-5.3,0.4-5.8,5.7-5.9
	c9.8-0.2,19.5-0.2,29.3,0c5,0.1,6.1,1.3,6.4,6.3c0.1,1.6,0.1,3.2,0.1,4.8c0,71.5,0,143,0,214.5c0,5-0.7,9.9-1.1,14.8
	c-0.2,3.5-1.9,5.2-5.4,5.4c-1.9,0.1-3.8,0.1-5.8,0.1c-104.9,0-209.8,0-314.8,0c-11.1,0-11.2-0.2-11.2-11.3c0-73.7,0-147.5,0-221.2
	c0-2.2,0.1-4.5,0.2-6.7c0.2-5.6,1.2-6.6,6.9-6.8c1.4-0.1,2.9,0,4.3,0c41.6,0,83.2,0,124.8,0c1.6,0,3.2,0,4.8,0
	c3.7,0,5.4,1.3,5.3,5.5c-0.3,8-0.1,16-0.1,24c0,1.6-0.5,3.2,0.5,4.7c1.6,1.8,1.6,1.8,0.6,3.5c-4.9,8.6-6.5,17.9-5.5,27.6
	c0.4,4.2,2.1,8,5.1,11.1c0.5,0.5,1.3,1.2,1.9,1.2c5.6,0.1,11.1,0.8,16.6-0.5c1.6-0.4,2.3-1.3,3-2.6c2-3.8,2.4-7.9,2.7-12
	c0.4-6.4-0.4-12.7-2-18.9c-0.4-1.5-0.9-3.1-1.6-4.5c-0.6-1.4-2-2.7-2.1-4.2c-0.1-1.4,0.9-2.9,1.4-4.4c0.9-7.8,0.2-15.6,0.4-23.4
	c0.1-6.6,0.3-6.9,7.1-6.9c14.7-0.1,29.4,0,44.1,0c16.8,0,33.5,0,50.3,0c6.8,0,6.9,0.3,7,6.9C1419.5,311.8,1418.8,320.5,1419.8,329.3
	z"/>
				<path class="st6" d="M1812.6,457.9c0,2.7,0,5.4,0,8.1c0.8,4.1,0.4,8.3,0.4,12.4c0.1,15.1,0,30.3,0,45.4c-0.2,5.6,0.4,11.1-0.3,16.7
	c-22.6-4.9-45.5-2.1-68.2-2.2c-82.4-0.4-164.7-0.2-247.1-0.2c-11,0-10.8,0-10.8-10.9c0.1-71.3,0-142.7,0-214
	c0-13.3,0-13.3,13.3-13.3c14.2,0,28.5,0.1,42.7-0.1c4.8,0,8.2,1.3,10.4,5.9c1.8,4.1,4.6,6.4,9.9,5c3.1-0.9,6.6-0.4,10,0.1
	c4.7,0.7,7.1-0.4,8.6-4.8c1.5-4.6,4.3-6,8.9-6.2c26.9-1,53.7-0.7,80.6-0.9c5.7,0,9.8,1,12,7c1.3,3.6,3.8,6.4,8.9,4.8
	c3.2-1,7-0.5,10.5,0c5,0.7,7.6-0.7,9.3-5.2c2.3-5.9,3.2-6.5,9.5-6.5c24.2,0,48.3,0,72.5,0c4.2,0,8.2,1.1,12.4,0.7
	c2.6-0.2,3.7,1.4,4,3.7c0.3,2.1,0.2,4.2,0.2,6.2c0,45.6,0,91.2,0,136.8C1810.2,450.4,1809.7,454.6,1812.6,457.9z"/>
				<path class="st6" d="M1290.1,66.3c0.1,1.3,0.2,2.5,0.2,3.8c0,41.5,0.1,83.1,0.1,124.6c0,1.6-0.1,3.1-0.1,4.9c-1.8,0-3.4-0.1-4.9,0
	c-1.2,0.1-2.5,0.4-3.7,0.8c-1.3,0.4-2,1.4-2,2.9c0,6.7-0.1,13.4-0.1,20.1c0,1.6,0.2,3.2,2,4c2.5,1.2,6-1.1,7.6,1.3
	c1.5,2.3,0.5,5.6,0.5,8.4c0,17.4,0,34.9,0,52.3c0,4.9-0.4,5.4-5.4,5.6c-1.8,0.1-3.5,0-5.3,0c-79.3,0-158.6,0-237.9,0
	c-11.5,0-11.6-0.1-11.6-11.3c0-69.4,0-138.8,0-208.2c0-10,0-10,9.8-10c81.7,0,163.4,0,245.1,0C1286.3,65.8,1288.3,65.3,1290.1,66.3z
	"/>
				<path class="st7" d="M1781.4,913.4c10.5,0.1,21.1,0.1,31.6,0.2c0.1,0,0.3,0.1,0.7,0.4c0,1.1,0,2.3,0,3.6c0,33.3,0,66.5-0.1,99.8
	c0,6.8,0.8,5.9-5.8,5.9c-116.8,0-233.6,0-350.3,0c-6.2,0-5.5,0.6-9.7-4.4c-22.3-27-44.7-54-67-81c-6.1-7.4-12.1-14.9-18.2-22.3
	c-0.5-0.6-0.9-1.2-1.3-1.7c0.2-0.4,0.2-0.6,0.3-0.7c0.1-0.1,0.3-0.2,0.4-0.2c30.1,0.1,60.1,0.2,90.3,0.4H1781.4z"/>
				<path class="st6" d="M1441,226.6c1-0.1,1.9-0.1,2.9-0.2c1.4-0.1,3,0.4,4-0.9c1.3-1.6,2.7-3.2,2.7-5.4c0-6.1,0-12.2-0.1-18.2
	c0-2.3-0.9-3-3.3-3.1c-0.2,0-0.3,0-0.5,0c-2.2-0.3-4.4,0.6-6.5-0.6c-0.1-2.2-0.3-4.4-0.3-6.6c0-40.1,0-80.3,0-120.4
	c0-6.5-0.7-5.6,5.6-5.6c35.7,0,71.3,0,107,0c5.5,0,5.2-0.6,5.2,5.1c-0.1,20.8-0.3,41.6-0.4,62.4c0,0.9-0.1,1.9-0.2,2.9
	c-1.6,0-3-0.1-4.4,0c-1.1,0.1-2.2,0.1-3.3,0.5c-1.8,0.6-2.9,1.7-2.9,3.8c0.1,6.2-0.1,12.5-0.1,18.7c0,0.6,0.1,1.3,0.2,1.9
	c0.3,2.1,1,2.9,3,3c2.4,0.1,4.8,0,7.5,0c0,1.4,0,3,0,4.6c-0.2,29.1-0.3,58.2-0.4,87.3c0,2.6,0.1,5.1,0.2,7.7c0,0.9,0,2.2,0.5,2.8
	c1.8,1.7,1,3,0,4.6c-2,3.3-3.2,6.9-4,10.7c-0.3,1.6-0.7,3.1-1,4.7c-0.1,0.6-0.1-0.2-0.2,0.4c-0.9,8.8-0.9,8.8-10.2,8.8
	c-30.5,0-61,0-91.5,0c-1.9,0-3.8,0-5.7-0.1c-2.8-0.2-4.2-1.3-4.2-4.5c0.1-20.8,0.1-41.5,0.1-62.3
	C1440.5,227.8,1440.6,227.2,1441,226.6z"/>
				<path class="st6" d="M1711.8,292.8c-0.3-3.5-0.6-7-1-10.5c-0.5-5-1.8-9.7-4.4-14.1c-0.6-1.1-0.6-1.8-0.1-3c0.6-1.6,0.7-3.4,0.7-5.1
	c0.1-17,0.2-33.9,0.2-50.9c0-14.1-0.1-28.1-0.2-42.2c0-1,0-1.9,0-2.9c0-0.9,0.4-1.5,1.4-1.6c0.8,0,1.6,0,2.4,0c1.4-0.1,3,0.4,4-0.9
	c1.3-1.6,2.7-3.2,2.7-5.5c0-6.1,0-12.2-0.1-18.2c0-2-0.9-2.7-3-2.9c-2.2-0.2-4.5,0.5-6.6-0.4c-0.7-1.2-0.4-2.5-0.4-3.8
	c0-20.1,0.1-40.3-0.1-60.4c0-3.5,0.7-4.6,4.5-4.6c32.3,0.2,64.6,0.1,96.9,0c3.2,0,4.4,0.7,4.4,4.2c-0.2,15.5-0.1,31-0.1,46.5
	c0,0.8,0.3,1.8-0.1,2.4c-4.4,7.4-2.6,15.6-2.6,23.4c-0.2,46.5-0.2,93.1,0,139.6c0,8.9-1.1,12.1-12.5,12.2
	c-26.5,0.4-53.1,0.1-79.6,0.1c-1.6,0-3.2,0.1-4.8-0.4C1712.8,293.6,1712.2,293.2,1711.8,292.8z"/>
				<path class="st6" d="M1752.1,744.9c-0.7-1.8-1.2-3.7-2.1-5.3c-1.3-2.5-3.3-3.8-6.3-4.4c-5.9-1.1-11.7-1.2-17.6-1.2
	c-30.6,0-61.2-0.1-91.9-0.1c-1.4,0-2.8-0.2-4.3-0.3c-1.5-1.9-1.5-4.2-1.5-6.4c0-10.7-0.1-21.4,0-32.1c0-7.2,1-8.2,8.4-8.3
	c42.9-0.1,85.7,0,128.6,0c13.4,0,26.9-0.1,40.3,0c6.8,0,7.1,0.4,7.1,7c0,55.3,0,110.7,0,166c0,1.7-0.4,3.5,0.4,5.2
	c0,1.9,0,3.8,0,5.7c-1.1,1.9-3,1.6-4.7,1.6c-16.4-0.1-32.9,0-49.3-0.1c-6.6,0-6.8-0.4-6.8-7.1c0-38.3,0-76.6,0-115
	C1752.5,748.4,1752.8,746.6,1752.1,744.9z"/>
				<path class="st8" d="M929.4,725.4c0-1.4,0-2.9,0-4.3c0-216.3,0-432.6,0-648.9c0-1.9-0.2-3.8-0.3-5.7c0.4,0,0.8-0.1,1.3-0.1
	c1.6,0,3.2,0,4.8,0c2.1,2.5,1.5,5.5,1.5,8.3c0,68.9,0,137.8,0,206.8c0,11.9-0.7,10.9,10.9,10.9c23.2,0,46.4,0,69.6,0
	c8.6,0,8.8,0,8.6-8.8c-1.8-62.2-0.5-124.4-1-186.6c-0.1-7.5,1.2-15,1-22.5c-0.1-6.2-0.4-6.5-6.5-6.5c-25.4,0-50.8,0-76.3,0
	c-2.7,0-5.5,0.5-7.8-1.5c0.5-0.3,1-0.8,1.6-0.9c1.4-0.1,2.9-0.1,4.3-0.1c26.5,0,53.1,0,79.6,0c87.9,0,175.9,0,263.8,0
	c1.6,0,3.2,0,4.8,0.1c0.3,0,0.6,0.6,0.9,0.9c-84,0-167.9,0-251.9,0c-1.8,0-3.5,0-5.3,0.1c-1.1,0-1.7,0.8-1.8,1.9
	c-0.1,1.3-0.1,2.6-0.1,3.8c0,71.7,0,143.3,0,215c0,1.6,0,3.2,0.1,4.8c0,1.1,0.7,1.8,1.8,1.8c1.3,0.1,2.6,0.1,3.8,0.1
	c82.2,0,164.4,0,246.6,0c6.3,0,5.7,0.4,5.7-5.7c0.1-18.4,0.1-36.8,0.2-55.2c0-4,0.1-4.5-4.1-4.4c-1.2,0-2.6,0.3-3.6-0.8
	c2.7,0,5.4,0,8.5,0c0.1,0.7,0.3,1.8,0.3,2.8c-0.1,20-0.2,40-0.3,60c-0.1,10.5-0.1,21.1,0,31.7c0,2.7,0.2,5.4,0.4,8.1
	c-1.3-0.8-1.2-2.2-1.2-3.4c0-5.9,0-11.8,0-17.8c0-3,0-6.1,0-9.1c0-1.8-0.4-2.2-2.3-2.3c-1.1-0.1-2.2,0-3.4,0c-44,0-88,0-131.9,0
	c-0.8,0-1.6,0-2.4,0c-3.6,0.1-3.7,0.1-3.8,3.8c0,0.6,0,1.3,0,1.9c0,76.8,0.1,153.5,0.1,230.3c0,7.7-0.9,6.8,7,6.8
	c106.7,0,213.4,0,320,0c2.2,0,4.5,0.7,6.5-0.7c0.2-2,0.2-4.1,0.6-6.1c1.6-10,0.7-20.1,0.8-30.1c0.1-66.9,0.1-133.7,0.1-200.6
	c0-5.5,0.2-5.4-5.1-5.4c-9.8,0-19.5,0-29.3,0c-0.5,0-1,0-1.4,0c-3.3,0.1-3.3,0.2-3.4,3.7c0,1.1,0,2.2,0,3.4c0,6.6,0,13.1-0.1,19.7
	c0,1.4,0.3,2.9-1,4c0.1-10.8,0.3-21.7,0.3-32.5c0-14.3-0.1-28.7-0.2-43c0-8.1-0.1-16.3-0.1-24.4c0-0.8-0.1-1.6,1-1.8
	c0,20.7,0.1,41.5,0.1,62.2c0,4.9-0.1,4.8,4.6,4.8c33.7,0,67.4,0,101,0c4.3,0,4.4,0.1,4.5-4.1c0-1.3-0.1-2.6,1-3.6
	c0,4.2,0,8.3,0,12.5c-1.7,0.9-3.4,0.6-5.2,0.6c-17.6,0-35.2,0-52.8,0c-8.5,0-8.5,0-8.5,8.4c0,73.4,0,146.8,0,220.3
	c0,1.1,0,2.2,0,3.4c-0.1,7.7-0.1,7.8,8,7.8c101.1,0,202.2,0,303.3,0c2.9,0,5.8-0.2,8.6,0.5c1.7,0.5,3.5,1.2,3.5,3.4
	c0.1,2.4-1.7,3.2-3.7,3.7c-2.4,0.5-4.8,0.3-7.2,0.3c-52,0-104,0-156,0c-1.6,0-3.2,0-4.8,0c-5.2,0.2-5.8,0.7-5.8,5.9
	c-0.1,41.4-0.1,82.9,0,124.3c0,5.5,0.7,6.3,6.1,6c55.8-2.4,111.6-0.5,167.4-1.2c2.1,0,5.1,1,5.8-2.6c0-42.6,0-85.2,0-127.8
	c0-1.6,0.1-3.2,0.2-4.8c-0.1-2.2-0.3-4.4,1.2-6.3c0.1-5.4,0.1-10.8,0.2-16.3c0.3-0.4,0.5-0.4,0.8,0c0,2.6,0.1,5.1,0.1,7.7
	c0,48.6,0,97.2,0,145.8c0,59.3,0,118.6,0,177.9c-0.3,2.9-0.3,6.1-0.3,9.3c-0.3-0.9-0.8-1.8-0.8-2.7c-0.1-2.2-0.1-4.5-0.1-6.7
	c0-53.6,0-107.2,0-160.8c0-7.1,0.7-6.5-6.4-6.5c-56.6,0-113.3,0-169.9,0c-6.4,0-6-0.5-6.1,5.9c0,13.1,0,170.6,0,183.8
	c-1.6,0-3.1,0.1-4.7,0c0-2.1-0.1-148.7-0.1-150.7c0-58.6,0-117.1,0-175.7c0-7,0.6-6.4-6.5-6.4c-215,0-430.1,0-645.1,0
	c-11,0-22.1,0-33.1,0c-5.7,0-5.4-0.2-5.4,5.6c0,8.3,0,16.6,0,25c0,74.7,0,204.1,0,278.8c0,1.8,0,3.5,0,5.2c-1.3,0.5-1.3-0.6-1.7-1.1
	c-3.3-4.2-4.6-63.6-4.1-69c0.3-3.8,0.1-7.7,0-11.5V725.4z"/>
				<path class="st7" d="M762.5,177c-0.1-1.8-0.3-3.5-0.3-5.3c0-15.2,0-30.3,0-45.5c0-0.5,0-1,0-1.4c0.1-3.6,1.7-4.8,5.1-3.6
	c0.4,0.2,0.8,0.5,1.2,0.8c1.1,0.9,2,0.6,3-0.3c3.3-3,5.5-6.6,5.1-11.3c-0.2-2.5,0-5.1,0-7.7c0-2.2,0-4.4,0.7-6.6
	c0.4-1.4,0.2-3.2-0.2-4.7c-0.6-2.3-2.1-3.5-4.6-3c-3.2-0.1-6.4-0.2-9.6-0.3c-1.6-0.1-2.1-0.4-2.2-1.9c-0.1-2.1-0.2-4.1-0.2-6.2
	c-0.1-4.3-0.2-8.6-0.2-12.9c0-1.1,0.4-1.8,1.6-1.8c1.3,0,2.6,0,3.8,0c42.2,0,84.3,0,126.5,0c6.5,0,13.1,0,19.6,0.1
	c1.1,0,2.3-0.3,3.1,0.7c-0.1,0.2-0.3,0.3-0.4,0.5c-0.5,0.4-1.1,0.7-1.7,0.9c-7.1,1.6-6.9,1.6-7.1,8.7c-1.3,35.2-0.8,70.3-1,105.5
	c0,7.1-0.8,7.9-7.8,7.1c-17.6-2-35.3-3.8-53-5.2c-15.6-1.2-31.2-2.5-46.8-3.5c-9.9-0.6-19.8-0.2-29.7-1.5
	C765.8,178.2,764,178.2,762.5,177z"/>
				<path class="st6" d="M1420.1,135.2c0,21.9,0,43.8,0,65.7c0,4.7,0.3,4.4-4.4,4.4c-29.6,0-59.2,0-88.8,0.1c-5,0-9.9,0.1-14.9,0.1
	c-1.6,0-1.9-0.2-2-1.9c-0.1-4.6-0.2-9.3-0.2-13.9c0-31.2,0-62.4,0-93.6c0-8.6-0.1-17.3-0.1-25.9c0-1.1-0.1-2.3,0.1-3.3
	c0.1-0.5,0.7-1.1,1.1-1.2c0.9-0.2,1.9-0.1,2.9-0.1c34.1,0,68.1,0,102.2,0c0.8,0,1.6,0,2.4,0.1c1,0,1.4,0.7,1.4,1.6
	c0,1.3,0,2.6,0,3.8c0,21.4,0,42.9,0,64.3C1419.9,135.2,1420,135.2,1420.1,135.2z"/>
				<path class="st6" d="M1582.1,293.8c-0.6-5.2-1.1-10.5-1.9-15.7c-0.4-2.5-1.4-4.9-2.3-7.3c-0.5-1.3-1.7-2.5-1.9-3.8
	c-0.2-1.1,0.8-2.3,1.1-3.4c0.2-1.1,0.2-2.2,0.2-3.3c0-32.6-0.1-65.3-0.1-97.9c0-2.4,0-4.8,0.1-7.2c0-0.4,0.6-1.1,1.1-1.2
	c0.7-0.2,1.6-0.1,2.4-0.1c34.6,0,69.1,0.1,103.7,0.1c0.2,0,0.3,0,0.5,0c1.6,0,1.9,0.3,1.9,2c0,9.6,0,19.2,0,28.8
	c-0.1,24.6-0.1,49.3-0.2,73.9c0,1.4,0.1,2.9,0,4.3c-0.1,2,0.5,3.8,2.1,5.3c-4.3,6-5.7,12.8-6.9,19.8c-0.6,1-0.5,2.2-0.4,3.3
	c0.2,2.5-1.1,3.5-3.3,3.8c-1.1,0.2-2.2,0.2-3.3,0.2c-28.8,0-57.6,0-86.4,0C1586.2,295.3,1583.9,295.4,1582.1,293.8z"/>
				<path class="st7" d="M444.3,155.1c-0.6,0-1.3-0.1-1.9-0.3c-1.8-2-1.4-4.5-1.5-6.8c-0.7-25.5,1.4-51,1-76.5c0-1.7,0-3.5,1.1-5
	c1.4-1.1,3.1-0.6,4.6-0.6c44.4,0,88.8,0,133.2,0c5.6,0,6,0.3,6.1,5.9c0.1,4.1,0,8.3,0,12.5c0,3.3-1.3,4.9-4.9,4.8
	c-5.7-0.2-6.9,1.7-6.7,7.4c0.3,6.5,0.4,13.1-0.1,19.6c-0.2,2.2,0.4,3.7,1.9,5.1c3.3,0.7,6.6,0.5,10,0.3c0.8,0,1.2,0.3,1.2,1.1
	c0,0.5,0.1,1,0.1,1.4c-0.2,20.4-0.4,40.8-0.6,61.2c0,1.1-0.2,2.2-0.3,3.3c-2.5,2.5-5.8,2.4-9,2.4c-18.8,0.1-37.6,1.5-56.4,2.8
	c-2.7-0.1-5.7,0.3-8.3-1.4c-0.1-5.1-0.2-10.2-0.2-15.3c0-2.4,0.8-3.1,3.2-3.2c1.6-0.1,3.2-0.2,4.6-1.1c1-0.7,1.8-1.7,2.6-2.7
	c0.4-0.5,0.3-1.2,0.7-1.8c1-1.6,2.8-3.2,2.1-5.1c-1.2-3.3-2.4-6.7-5.5-8.8"/>
				<path class="st7" d="M612.7,188.4c-0.1-1.8-0.2-3.5-0.2-5.3c0-22.3,0-44.6,0-67c0-6.3-0.3-5.8,5.6-5.9c0.5,0,1-0.1,1.4-0.1
	c1.1-0.1,2.2-0.2,3.3-0.2c36.6,0,73.3,0.1,109.9,0.2c1.7,0,3.4,0,5.4,0c0,1.5,0.1,3.1,0.1,4.6c-0.1,18.9-0.3,37.8-0.5,56.6
	c0,4.8-0.1,9.6-0.2,14.4c0,0.5-0.2,0.9-0.3,1.4c-2.5,2.1-5.5,1.5-8.3,1.5c-33.4,0-66.9,0-100.3,0c-3.8,0-7.7-0.1-11.5,0.4
	C615.7,189.4,614.1,189.5,612.7,188.4z"/>
				<path class="st6" d="M1577.1,141.6c-0.1-1.1-0.3-2.2-0.4-3.3c-0.1-6.1-0.3-12.2-0.4-18.2c-0.1-16.6,0-33.3,0-49.9
	c0-1.1-0.1-2.3,0.1-3.3c0.1-0.5,0.7-1.1,1.1-1.2c0.9-0.2,1.9-0.1,2.9-0.1c34.1,0,68.1,0,102.2,0c0.8,0,1.6,0,2.4,0
	c0.9,0,1.5,0.5,1.6,1.4c0.1,1,0.1,1.9,0.1,2.9c0,22.6,0,45.1,0,67.7c0,1,0,1.9-0.1,2.9c-0.1,0.3-0.6,0.8-0.9,0.9
	c-1.6,0.1-3.2,0.2-4.8,0.2c-25.6,0-51.2,0.1-76.8,0.1c-8.5,0-17,0.2-25.4,0.3C1578.3,141.8,1577.8,141.7,1577.1,141.6z"/>
				<path class="st6" d="M1310.5,230.4c-0.1-3.7-0.2-7.3-0.2-11c0-1.4,0.2-1.6,1.7-1.6c1.4,0,2.9,0,4.3,0c33.9,0,67.7,0.1,101.6,0.1
	c2.1,0,2.2,0.1,2.2,2c-0.1,6.7-0.2,13.4-0.3,20.1c-0.8,1.7-0.4,3.5-0.4,5.2c0,15-0.1,30,0.1,45.1c0,3.6-1.4,4.9-4.7,5
	c-1.4,0-2.9,0.1-4.3,0.1c-30.2,0-60.4,0-90.6,0c-1.3,0-2.6-0.1-3.8,0c-3.7,0-5.2-1.5-5.2-5.5c0.2-18.1,0.1-36.1,0.1-54.2
	C1310.9,233.9,1311.2,232.1,1310.5,230.4z"/>
				<path class="st6" d="M1812.3,679.7c0,0.8,0.2,1.6,0,2.4c-0.1,0.5-0.7,1.2-1.2,1.3c-1.6,0.2-3.2,0.2-4.8,0.2c-32.8,0-65.6,0-98.4,0
	c-17.6,0-35.2,0-52.8,0.1c-2.2,0-4.4,0.4-6.6,0.6c-1.9,0.1-3.8,0.2-5.7,0.2c-3.5,0-7,0-10.6,0c-1.5,0-2-0.6-2.1-2
	c-0.1-1.3-0.1-2.6-0.1-3.8c0-42.5,0-85.1,0-127.6c0-1.1,0-2.2,0-3.4c0.1-1.7,0.5-2.2,2.4-2.2c1.6-0.1,3.2,0,4.8,0
	c54.4,0,108.8,0,163.2,0c1.6,0,3.2,0,4.8,0c0.8,0,1.6-0.3,2.3-0.6c1.2-0.6,1.3-2.5,0.1-3.1c-1-0.5-2.1-0.8-3.2-0.9
	c-1.6-0.2-3.2-0.1-4.8-0.1c-102.9,0-205.7,0-308.6,0c-7.6,0-6.9,0.8-6.9-7c0-76.9,0-153.9-0.1-230.8c0-5.1-0.2-5.1,4.9-5.1
	c19.4,0,38.7,0,58.1,0c1.8,0,3.5-0.1,5.1,0.9c1,3.7,2.3,7.3,5.1,10.1c0.8,0.8,1.7,1.4,2.9,1.4c4.1,0,8.3,0.1,12.4-0.1
	c1.4,0,2.8-0.5,4.1-1c0.7-0.2,1.5-0.8,1.7-1.4c1-2.3,1.8-4.7,2.7-7.1c0.4-3,2.1-4.4,5.1-4.4s6.1,0,9.1,0c26.2,0,52.4,0,78.6,0
	c2.7,0,5.5-0.5,7.8,1.6c0.4,1.2,0.8,2.4,1.1,3.7c0.8,2.8,2.4,5.2,4.3,7.4c0.8,0.9,1.7,1.4,2.9,1.4c4.2,0,8.3,0.2,12.5-0.1
	c4.5-0.3,5.7-1.3,7.2-5.5c0.8-2.2,1.2-4.6,1.9-6.9c2.3-1.9,5.1-1.5,7.8-1.5c25.6,0,51.2,0,76.8,0c1.9,0,3.7,0.3,5.9-0.4
	c-1.9-0.7-3.6-0.4-5.3-0.4c-25.7,0-51.5,0-77.2-0.1c-2.4,0-5.6,1.2-6.9-2.4c28.8,0,57.6,0,86.4,0c2.1,0,4.1,0.2,5.7-1.7
	c0.7-0.8,2.3-0.7,3.8-1.1c0-1.7,0-3.4,0-5.1c0-51.8,0-103.6,0-155.4c0-1.3,0-2.6,0-3.8c0-2,0.5-3.9,2.1-5.1c1.5-1.1,1.7-2.5,1.7-4.2
	c0-15.5,0-31,0-46.5c0-0.6,0-1.3-0.1-1.9c-0.1-0.9-0.7-1.5-1.5-1.6c-1.1-0.1-2.2-0.1-3.3-0.1c-31.5,0-63,0-94.5,0
	c-1,0-1.9,0-2.9,0.1c-1.5,0.1-2.1,0.6-2.2,2s-0.1,2.9-0.1,4.3c0,20.6,0,41.3,0,61.9c-0.3-0.2-0.7-0.3-0.7-0.5
	c-0.1-0.9-0.1-1.9-0.1-2.9c0-20.5,0-40.9,0-61.4c0-4.4-0.1-4.2,4.1-4.2c32.6,0,65.2,0,97.9,0c1.1,0,2.2,0,3.3,0.1
	c0.3,0,0.8,0.5,0.9,0.9c0.2,0.8,0.1,1.6,0.1,2.4c-0.1,18.1-0.3,36.1-0.4,54.2c-0.1,8,0,16,0,24c0,102,0,204,0,306.1
	c0,1.6-0.2,3.2-0.3,4.8c-2.9-0.2-3.5-2.5-3.9-4.7c-0.3-1.4-0.1-2.9-0.1-4.3c0-46.2,0-92.5,0-138.7c0-2.6,0-5.1,0-7.7
	c0-1.3-0.6-1.8-1.8-1.5c-3.2,0.7-6.3,0.7-9.5-0.2c-1.2-0.4-2.5-0.3-3.8-0.3c-24.5,0-48.9,0-73.4,0c-1.3,0-2.6,0-3.8,0.3
	c-1.4,0.3-2.7,1-2.7,2.9c0,0.5-0.1,1-0.1,1.4c-0.5,4.5-3.7,6.5-7.5,7.7c-0.8,0.3-2.1,0.1-2.7-0.4c-1.8-1.5-3.9-1.3-5.9-1.3
	c-1.1,0-2.2,0-3.4,0c-1.3,0-2.4,0.2-3.6,1c-2.2,1.5-3.6,1.2-5.6-0.5c-2.4-2-4.1-4.6-4.7-7.6c-0.5-2.4-1.9-3.2-3.9-3.4
	c-0.9-0.1-1.9-0.1-2.9-0.1c-20.2,0-40.3,0-60.5,0c-1.7,0-3.5,0.4-5.2,0.6c-1.4,0.1-2.8,0.4-4.3,0.4c-5.4,0-10.9,0-16.3,0
	c-2.6,0-2.6,0.1-3.4,2.5c-0.3,0.9-0.5,1.8-0.7,2.8c-0.6,3.1-3.6,5.7-7.1,6.2c-0.7,0.1-1.7,0-2.3-0.5c-1.6-1.4-3.5-1.4-5.4-1.3
	c-1.3,0-2.6,0-3.8,0c-1.3,0-2.4,0.3-3.5,1.1c-2.1,1.5-3.7,1.2-5.6-0.6c-1.9-1.7-3.8-3.4-4.4-6.1c-0.2-0.9-0.8-1.7-1.3-2.6
	s-1.3-1.4-2.3-1.4c-1.1,0-2.2,0-3.4,0c-16.5,0-33,0-49.4,0c-6.4,0-6.4,0-6.4,6.3c0,72.9,0,145.9,0,218.8c0,2.7,0.3,5.4-0.7,8.1
	c-0.4,1,0.4,1.8,1.6,1.9c1.6,0.1,3.2,0.1,4.8,0.1c102.1,0,204.1,0,306.2,0c2.4,0,4.7,0,7.1,0.8c2,0.7,3.7,1.8,5.4,3c0,2,0,3.9,0,5.9
	c-1,2.3-3.2,3-5.4,3.5c-3.3,0.9-6.7,0.8-10,0.8c-50.4,0-100.7,0-151.1,0c-1.6,0-3.2,0-4.8,0c-4.9,0.2-5.5,0.7-5.6,5.6
	c-0.1,7.7,0,15.3,0,23c0,22.9,0,45.7,0,68.6c0,5.5,0,5.5,5.6,5.6c6.4,0.1,12.3,6.4,12.2,13c-0.2,6.7-6.1,12.4-12.8,12.4
	c-1.3,0-3.7-1.6-3.9,0.9c-0.2,2.2,2.4,2.1,4.1,2.2c1.9,0.1,4,0.2,5.6-1c3.9-2.8,8.3-2.8,12.9-2.8c41.1,0,82.2,0,123.3,0
	c1.7,0,3.5,0.4,5.7-0.5c-2.6-2.5-3-5.6-2.9-8.8c0.3-8.2,7.5-13,15.2-9.9c4.4,1.7,5.5,5,3.3,9.5c-2.5,0.9-3.3-1.3-4.6-2.5
	c-1.5-1.4-3.2-2.2-5.2-1.2s-3.1,2.7-3.1,5c0,1.5,0.5,2.9,2,3.5c2,0.8,4.1,0.7,5.9-0.7c1.3-1,1.8-3.2,4-3c4.1,3.9,2.2,7.6-3.5,9.4
	C1802.6,678.6,1807.5,677.1,1812.3,679.7z"/>
				<path class="st7" d="M674.7,65.3c19.5,0,39,0,58.5,0c1,0,1.9,0,2.9,0c2,0.1,2.3,0.3,2.4,2.1c0,0.5,0,1,0,1.4c0,7.8,0,15.7,0,23.5
	c0,3.3-0.1,3.3-3.5,3.4c-1.9,0.1-3.8,0-5.8,0c-36.3,0-72.5,0.1-108.8,0.1c-2.6,0-5.1,0.1-7.7,0c-0.4,0-1-0.6-1.2-1.1
	c-0.2-0.4-0.1-0.9-0.1-1.4c-0.2-8.1-0.5-16.3-0.7-24.4c0-0.8-0.1-1.6,0.1-2.4c0.1-0.5,0.8-1.1,1.2-1.1c1.3-0.2,2.5-0.1,3.8-0.1
	C635.4,65.3,655.1,65.3,674.7,65.3L674.7,65.3z"/>
				<path class="st7" d="M1435.1,301.6c-1.7,0.1-3,0-4.2,0.3c-0.5,0.1-1.1,1.1-1.2,1.8c-0.1,0.4,0.5,1.1,1,1.4s1.2,0.3,1.8,0.4
	c2.5,0.4,2.5,0.4,2.5,2.8c0,0.6,0,1.3,0,1.9c0,2.5-0.1,2.5-2.6,2.8c-0.5,0.1-1,0-1.4,0.1c-0.9,0.2-1.6,0.8-1.4,1.6
	c0.1,0.7,0.8,1.5,1.4,1.7c1.2,0.4,2.5,0.5,3.8,0.7c0.1,0.6,0.3,1.3,0.3,1.9c-0.2,2.7,0.7,5.4-0.5,8c-2.8,0.1-5.7,0.2-8.5,0.3
	c-1,0-1.4-0.6-1.4-1.5c0-1.4,0-2.9,0-4.3c-0.1-25.1,0.1-50.2-0.2-75.4c-0.8-57.9-0.7-115.8-0.7-173.7c0-2-0.5-4.1,0.5-6.1
	c1.9-0.1,3.8-0.3,5.7-0.3c7.3,0,6.2-0.9,6.2,6.4c0,33.8,0.1,67.5,0,101.3c-0.1,19-0.6,38.1-0.8,57.1c-0.2,21.9-0.1,43.8-0.2,65.8
	C1435.1,298,1435.1,299.6,1435.1,301.6z"/>
				<path class="st7" d="M1305.1,301.6c-1.2,0-2.3-0.1-3.4,0s-1.9,0.9-1.8,1.8s0.6,1.5,1.4,1.7c1.2,0.3,2.4,0.5,3.6,0.7
	c0.1,1.6,0.3,3.1,0.4,4.7c0,0.2,0,0.3,0,0.5c0,1.1-0.5,1.8-1.7,1.8c-0.8,0-1.6,0-2.4,0.1c-0.9,0.1-1.5,0.8-1.4,1.6
	c0.1,0.7,0.7,1.5,1.3,1.7c1.2,0.4,2.5,0.5,3.7,0.7c0.1,0.5,0.4,1,0.4,1.4c-0.2,2.8,0.8,5.7-0.5,8.4c-2.9,0.1-5.7,0.2-8.6,0.3
	c-1,0-1.4-0.7-1.4-1.5c0-1,0-1.9,0-2.9c-0.3-43.5-0.5-87-0.8-130.5c-0.1-14.4-0.1-28.8-0.1-43.2c0-26.5,0-53.1,0-79.6
	c0-4.7-0.3-4.4,4.5-4.3c2.5,0.1,5.1-0.6,7.4,0.7c0.1,2.4,0.4,4.7,0.4,7.1c-0.1,34.1-0.1,68.1-0.3,102.2c-0.2,35.7-0.4,71.3-0.6,107
	c0,5.6,0,11.2,0,16.8C1305.3,299.8,1305.2,300.6,1305.1,301.6z"/>
				<path class="st7" d="M1701.6,237.8c-1.3,0.1-2.6,0.1-3.8,0.3c-0.5,0.1-1.1,0.8-1.2,1.3s0.3,1.4,0.7,1.6c1.3,0.5,2.7,0.8,4.4,1.2
	c0.6,1.9,0.1,4.1,0.2,6.3c-1.3,1.2-2.9,0.3-4.1,0.9c-0.5,0.2-1.1,0.7-1.3,1.2c-0.3,0.8,0.2,1.6,1.1,1.9c1.4,0.4,2.8,0.7,4.4,1.1
	c0,2.7,0.1,5.4,0.1,8.1c0,1.2-0.6,1.7-1.8,1.7c-2.4,0-4.8,0-7.2,0c-1.2,0-1.6-0.8-1.6-1.9c0-1.3,0-2.6,0-3.8
	c-0.1-29.3-0.2-58.5-0.4-87.8c-0.2-32.5-0.3-64.9-0.5-97.4c0-6-0.6-5.3,5.4-5.3c1.8,0,3.5,0,5.3,0c1.2,0,1.7,0.7,1.7,1.8
	c0,0.8,0,1.6,0,2.4c-0.1,18.7,0.2,37.4-0.3,56.1c-0.9,35-0.7,70-0.8,105.1C1702,234.3,1702.3,236.1,1701.6,237.8z"/>
				<path class="st7" d="M755.5,207c-1.9-0.1-3.2-0.3-4.4-0.2c-1.1,0.1-1.7,0.9-1.8,1.9c-0.1,1.1,0.6,1.9,1.6,2.1
	c1.4,0.3,2.8,0.3,4.3,0.5c0.7,1.7,0.3,3.4,0.4,5.2c0.1,3.1,0,3.4-3,3.3c-0.5,0-1,0-1.4,0.1c-1,0.1-2,1.1-1.8,1.9
	c0.2,0.7,0.6,1.5,1.2,1.9c0.6,0.4,1.5,0.5,2.3,0.7c2.8,0.5,2.8,0.5,2.9,3c0,2.6,0.1,5.1,0,7.7c0,0.4-0.7,1.1-1.2,1.1
	c-3.2,0.1-6.4,0.1-9.6,0.1c-0.9,0-1.4-0.7-1.4-1.6c0-1.1,0-2.2,0-3.4c-0.3-50.8-0.5-101.7-0.8-152.5c0-3.7,0-7.4,0-11
	c0-1.2,0.6-1.8,1.8-1.8c3.7,0,7.4,0,11,0.1c0.4,0,1.1,0.7,1.2,1.2c0.2,1.1,0.1,2.2,0.1,3.3c-0.3,14.1-0.6,28.1-0.8,42.2
	c-0.2,11.4-0.3,22.7-0.3,34.1c-0.1,18.2,0,36.5-0.1,54.7C755.5,203.3,755.5,205,755.5,207z"/>
				<path class="st7" d="M1572.1,242c0,1.7,0.1,3.3,0.1,4.8c0,1.9-0.2,2.1-2.2,2.3c-0.2,0-0.3,0-0.5,0c-2.1,0.3-2.9,0.8-2.8,1.8
	c0.2,1.4,1.3,1.7,2.4,1.9c0.9,0.2,1.9,0.3,2.9,0.5c0.4,2.8,0.2,5.5,0.3,8.2c0,1.2-0.7,1.7-1.8,1.8c-2.4,0-4.8,0-7.2,0
	c-1.2,0-1.6-0.5-1.6-1.8s0-2.6,0-3.8c-0.2-31.8-0.4-63.7-0.6-95.5c-0.1-14.4,0.1-28.8,0.2-43.2c0.1-16.2,0.2-32.3,0.2-48.5
	c0-4.7-0.1-4.4,4.5-4.3c7.4,0.1,6.4-1.1,6.4,6.2c-0.1,53.7-0.2,107.5-0.3,161.2c0,0.3,0,0.6,0,1c0,2.9,0,2.9-3,3.2
	c-0.3,0-0.6,0-0.9,0.1c-0.9,0.2-1.5,0.7-1.4,1.6c0.1,0.6,0.5,1.2,0.9,1.5c0.7,0.4,1.5,0.5,2.3,0.6
	C1570.6,241.8,1571.2,241.9,1572.1,242z"/>
				<path class="st6" d="M1812.4,908.1c-1.8,0.1-3.5,0.2-5.3,0.2c-8.6,0-17.3,0-25.9,0c-1.8,0-2.9-0.3-3.6-2.2c-1.4-3.6-3.7-6.7-6.1-9.7
	c-4.7-5.7-10-10.8-15.7-15.5c-1-0.8-1.9-1.7-2.9-2.5c0.5-2.7,2.8-2.4,4.5-2.4c16.9-0.2,33.8-0.2,50.7,0c3.2,0,5,1.2,4.8,4.9
	C1812.5,889.9,1813.6,899,1812.4,908.1z"/>
				<path class="st0" d="M612.7,188.4c4.8-1.3,9.8-1.2,14.7-1.2c34.9,0,69.8,0,104.7,0c1.8,0,3.5,0,5.3-0.1c0,2.6,0,5.1,0,7.7
	c-4.1-1.1-8.2-0.9-12.4-0.9c-30.7,0-61.4,0-92.1,0c-2.7,0-5.4,0-8.1,0.6c-1.8,0.4-3.8,0.2-5.7,0.2
	C612,194.8,612.6,195.7,612.7,188.4z"/>
				<path class="st9" d="M675.3,104.7c-19.7,0-39.3,0-59,0c-0.8,0-1.6,0-2.4,0c-2.3-0.1-3.2-1.5-2.3-3.8c0.1-0.4,0.6-0.8,1-0.8
	c0.9-0.1,1.9-0.1,2.9-0.1c39.3,0.1,78.6,0.1,117.9,0.2c1,0,1.9,0,2.9,0c1.8,0.1,2.1,0.5,2.2,2.4c0,1.8-0.3,2-2.3,2
	C715.8,104.6,695.5,104.6,675.3,104.7C675.3,104.6,675.3,104.7,675.3,104.7z"/>
				<path class="st10" d="M1310.5,230.4c1.2,1.2,0.8,2.7,0.8,4.1c0.1,8.5,0.1,17,0.1,25.4c0,9.4,0,18.9,0,28.3c0,1.3,0,2.6,0.1,3.8
	c0.1,0.9,0.6,1.5,1.5,1.5c1.1,0.1,2.2,0.1,3.4,0.1c32.5,0,64.9,0,97.4,0c5.1,0,5,0.1,5-5c0-14.7,0.1-29.4,0.1-44.1
	c0-1.5-0.5-3.2,0.8-4.6c0.1,1.7,0.2,3.5,0.2,5.2c-0.1,16.7-0.3,33.4-0.3,50.2c0,11.3,0.1,22.6,0.1,33.9c-1.3-1.1-0.9-2.6-0.9-4
	c0-7.3,0-14.7,0-22c0-1.3,0-2.6-0.1-3.8c-0.1-1.1-0.8-1.7-1.9-1.7c-1.3,0-2.6-0.1-3.8-0.1c-31.9,0-63.9,0-95.8,0
	c-6.4,0-5.8-0.4-5.8,6s0,12.8-0.1,19.2c0,1.2,0.3,2.6-0.8,3.6c-0.1-1.3-0.2-2.5-0.2-3.8c0-29.3,0-58.6,0-87.9
	C1310.3,233.2,1310.4,231.8,1310.5,230.4z"/>
				<path class="st10" d="M1630.1,870.7c15.5,0,159.1,0,174.6,0c2.2,0,4.4,0.3,6.7,0.3c0.6,0,1.2-0.3,1.8-0.4c0,11.9,0,23.7,0.1,35.6
	c0.1,0.8,0.3,1.7-0.9,1.9c0-8.5,0-16.9,0-25.4c0-1.1,0-2.2-0.1-3.4c-0.1-1.1-0.6-1.8-1.8-1.9c-0.8-0.1-1.6-0.1-2.4-0.1
	c-17.1,0-34.2,0-51.3,0c-1.4,0-125.6-0.8-126.7,0.7c-0.7-0.3,0-0.6,0-1.2"/>
				<path class="st0" d="M1387.2,955.6c-0.3-0.2-0.6-0.4-0.9-0.6c-0.4-0.3-0.7-0.5-1.1-0.8c-5-3.1-10-6.2-15.3-9.5
	c-1.7,0.7-3,2.2-4.4,3.4c-0.9,0.7-1.3,1.7-1.7,2.8c-1.9,6.3-3.7,12.6-4.5,19.1c0,0.3-0.3,0.5-0.5,0.7c-0.1,0-0.3,0-0.3,0
	c-0.1-0.1-0.1-0.3-0.1-0.5c0-1.3-0.1-2.6-0.1-3.8c0-15.7,0-31.3,0-47c0-0.1,0.1-0.2,0.2-0.3s0.3-0.2,0.4-0.2s0.3,0.1,0.4,0.2
	c9.3,11.6,18.6,23.2,28,34.7C1387.7,954.6,1387.6,955.2,1387.2,955.6z"/>
				<path class="st11" d="M1365.1,213.1c-16.6,0-33.2,0-49.9,0c-1.1,0-2.2,0-3.4,0c-1.4-0.1-2.4-1.8-1.6-3.1c0.2-0.3,0.7-0.7,1.1-0.7
	c1.1-0.1,2.2-0.1,3.3-0.1c33.4,0,66.8,0.1,100.2,0.1c1.1,0,2.2,0,3.4,0c1.5,0.1,2.2,1,1.8,2.6c-0.1,0.4-0.5,0.9-0.8,1
	c-0.9,0.2-1.9,0.1-2.8,0.1C1399.3,213,1382.2,213,1365.1,213.1C1365.1,213.1,1365.1,213.1,1365.1,213.1z"/>
				<path class="st10" d="M1681.8,297.6c-31.5,0-63,0-94.4,0c-0.5,0-1,0.1-1.4,0c-2.5-0.5-3.7,1-4.7,2.9c0.3-2.2,0.6-4.5,0.9-6.7
	c13.4,0,26.8-0.1,40.2-0.1c17.4,0,34.8,0,52.2,0c0.8,0,1.6,0,2.4,0c3.2,0,4,0.1,4.1-3.6c0-0.7,0.5-1.4,0.8-2.1
	C1681.8,291.2,1681.8,294.4,1681.8,297.6z"/>
				<path class="st12" d="M1631.9,149.3c-16.9,0-33.9,0-50.8,0c-0.6,0-1.3,0-1.9,0c-1.9,0-2.4-0.8-2.1-2.8c0.1-0.5,0.7-1.1,1.2-1.2
	c0.7-0.2,1.6-0.1,2.4-0.1c33.9,0.1,67.7,0.2,101.6,0.3c1,0,1.9,0,2.9,0.1c1.3,0.1,1.8,0.8,1.6,2.4c-0.1,0.7-0.3,1.2-1.2,1.2
	c-1.6,0-3.2-0.1-4.8-0.1c-16.3,0-32.6,0-48.9,0C1631.9,149.1,1631.9,149.2,1631.9,149.3z"/>
				<path class="st10" d="M1712.7,292.8c0.5,0.3,1.1,0.8,1.6,0.8c1.4,0.1,2.9,0.1,4.3,0.1c27.3,0,54.6,0,82,0c1.4,0,2.9,0,4.3,0.1
	c0.9,0,1.5,0.5,1.7,1.4c0.1,0.9-0.6,1.9-1.5,2.2c-0.5,0.1-0.9,0.2-1.4,0.2c-0.6,0-1.3,0-1.9,0c-30,0-60.1,0-90.1,0
	c0-1.6,0.1-3.2,0.1-4.8C1712.1,292.8,1712.4,292.8,1712.7,292.8z"/>
				<path class="st0" d="M517.3,218.1c-7.1,0-14.1,0-21.1,0c-1.3,0-2.6,0-3.8,0c-1.2,0-1.7-0.7-1.7-1.9c0-2.7-0.1-5.4-0.1-8.1
	c0-1.6,0.3-1.9,2-1.9c6.1-0.1,12.1-0.2,18.2-0.3c1.9,0,3.8-0.2,5.7-0.2c0.7,0,1.2,0.4,1.2,1.2c0,3.4,0,6.7-0.1,10.1
	C517.7,217.3,517.4,217.8,517.3,218.1z"/>
				<path class="st13" d="M598.3,283.7c-0.4,0.2-0.5,0.4-0.7,0.4c-6.4,0.2-5.5,1-8.1-5.4c-1.4-3.5-1.4-7.2-1.2-10.9
	c0.4-6.4,1.5-12.7,4.2-18.6c0.4-0.9,1-1.4,2.2-1.2c2,0.4,4.1,0.5,6.3,0.7C595.7,260.2,595.6,271.9,598.3,283.7z"/>
				<path class="st13" d="M748.1,283.8c-0.7,0.2-1,0.4-1.3,0.4c-5.8,0-4.9,1.1-7.4-5.2c-1.9-4.7-1.6-9.7-1-14.7
	c0.6-4.8,1.5-9.5,3.4-13.9c1.1-2.5,1.1-2.5,3.8-2.2c1.7,0.2,3.4,0.3,5.3,0.4C745.5,260.2,745.3,271.8,748.1,283.8z"/>
				<path class="st14" d="M1697.6,273.9c-0.1,0.5,0,1-0.2,1.4c-4,8.8-4.2,17.8-2.3,27.1c0.1,0.3,0.1,0.6,0.2,0.9c0.2,1-0.3,1.6-1.2,1.6
	c-3.9,0.3-4.4,0.1-5.7-3.4c-0.7-1.9-1.4-3.9-1.6-6c-0.6-7.1,0.7-13.9,3.3-20.5c0.5-1.2,1.2-1.7,2.5-1.5
	C1694.3,273.8,1695.9,273.8,1697.6,273.9z"/>
				<path class="st15" d="M1430.9,338c-4.6,9.9-4.6,19.9-2.4,30.1c-0.3,0.2-0.5,0.5-0.8,0.5c-5.2,0.2-4.7,0.8-6.7-4.7
	c-0.8-2.1-1.1-4.4-1.1-6.6c-0.2-6.5,1-12.7,3.6-18.7c0.4-1,1-1.5,2.2-1.3C1427.3,337.7,1429.1,337.8,1430.9,338z"/>
				<path class="st16" d="M1567.7,273.9c-0.1,0.7,0,1.2-0.2,1.6c-3.9,8.8-4.3,17.9-2.2,27.2c0.4,1.9,0.2,2.2-1.8,2.3c-0.6,0-1.3,0-1.9,0
	c-1.1,0-1.9-0.6-2.2-1.5c-0.8-2.4-2-4.8-2.3-7.3c-0.8-7.1,0.4-14,3-20.7c0.6-1.6,0.7-2.3,3.2-1.9
	C1564.8,273.9,1566.2,273.8,1567.7,273.9z"/>
				<path class="st16" d="M1301.1,337.9c-4.4,10.2-4.9,20.1-2.3,30.3c-6.1,1.1-5.6,0.7-7.5-4c-1.2-3-1.3-6.2-1.2-9.4
	c0.2-5.3,1.2-10.5,3.2-15.4c0.8-2,1-2.1,3.1-1.9C1297.8,337.7,1299.3,337.8,1301.1,337.9z"/>
				<path class="st17" d="M588.5,116.5c-2.1-0.1-3.7-0.2-5.3-0.3c-1.6-0.1-2.1-0.4-2.1-1.9c-0.1-5.7-0.1-11.4-0.1-17.1
	c0-1.5,0.4-1.9,2-2c0.2,0,0.3,0,0.5,0c5.6,0,5.2-0.8,5.2,4.9C588.6,105.5,588.6,110.8,588.5,116.5z"/>
				<path class="st18" d="M768,104.5c0,2.4,0,4.8,0,7.2c0,3.1,0,3.1-3.2,3.1c-0.5,0-1,0-1.4,0c-1.6-0.1-2.1-0.4-2.1-1.9
	c-0.1-5.7-0.2-11.5-0.2-17.2c0-2,0.4-2.4,2.1-2.4c5,0,4.9-0.2,4.8,4.5C768,100.1,768,102.3,768,104.5z"/>
				<path class="st19" d="M1370.9,1001.7c1.2,1.2,1.7,1.5,2.1,2c4.5,5.6,8.9,11.2,13.4,16.8c0.3,0.4,0.6,0.8,0.7,1.2
	c0.1,0.2-0.1,0.6-0.4,0.8c-0.2,0.2-0.6,0.2-0.9,0.2c-6.9,0.5-6.7,0.3-11.1-5c-3-3.5-4.4-7.2-3.8-11.7
	C1371.1,1004.9,1370.9,1003.8,1370.9,1001.7z"/>
				<path class="st20" d="M1290.3,223.4c-1.5-0.1-2.5-0.2-3.4-0.3c-3-0.3-3-0.3-3.1-3c-0.1-4.3-0.1-8.6-0.1-13c0-1.8,0.5-2.2,2.3-2.3
	c1.1-0.1,2.2-0.1,3.4,0.1c0.4,0,0.7,0.5,0.9,0.9c0.2,0.2,0.2,0.6,0.2,0.9C1290.4,212.2,1290.3,217.6,1290.3,223.4z"/>
				<path class="st21" d="M1557.1,159.3c-7.1,0-6.4,0.6-6.5-5.9c0-3.5,0-7,0-10.5c0-1.1,0.5-1.8,1.7-1.8c1,0,1.9,0,2.9,0
	c1.7,0,2.1,0.3,2.1,1.8C1557.3,148.3,1557.2,153.7,1557.1,159.3z"/>
				<path class="st22" d="M1712.8,149.1c0,2.5,0.1,5.1-0.1,7.6c0,0.4-0.7,0.9-1.1,1.3c-0.2,0.2-0.6,0.1-0.9,0.1c-3.6,0.1-3.8,0-3.8-3.6
	c0-4.3,0-8.6,0-12.9c0-1.8,0.4-2.1,2.3-2.2c0.5,0,1,0,1.4,0c1.5,0.1,2,0.5,2,2C1712.8,144,1712.8,146.5,1712.8,149.1L1712.8,149.1z"
				/>
				<path class="st23" d="M1445.9,213c0,2.1,0,4.2,0,6.2c0,2.5-0.1,2.6-2.8,2.6c-0.5,0-1,0-1.4,0c-0.9,0-1.6-0.4-1.6-1.4
	c-0.1-5.1-0.1-10.2-0.1-15.3c0-1.2,0.7-1.6,1.8-1.6c0.6,0,1.3,0,1.9,0c1.6,0.1,2.1,0.4,2.1,1.9
	C1445.9,207.9,1445.9,210.4,1445.9,213L1445.9,213z"/>
				<path class="st24" d="M760.9,267c0.2,5.4-0.5,10.4-1.6,15.4c-0.1,0.3-0.2,0.6-0.4,0.8c-0.2,0.2-0.5,0.4-0.8,0.4
	c-0.2,0-0.6-0.3-0.6-0.5c0-1.3,0-2.5,0.2-3.8c1-8.3,0.3-16.5-1.8-24.6c-0.3-1.2-0.6-2.5-0.6-3.7c0-1.4,1.1-2.9,1.5-2.5
	c0.6,0.6,1.2,1.4,1.5,2.3C760.1,256.2,760.5,261.7,760.9,267z"/>
				<path class="st24" d="M608.5,272.5c-0.4-6.4-0.7-12.3-2.5-18c-0.6-1.9-0.7-3.7,0.2-5.5c0.1-0.2,0.5-0.5,0.8-0.5s0.6,0.2,0.8,0.4
	c0.3,0.4,0.5,0.8,0.7,1.3c3,10.8,3.7,21.6,1,32.6c-0.1,0.3-0.3,0.5-0.5,0.8c-0.1,0.1-0.3,0.2-0.4,0.2c-0.3-0.1-0.7-0.2-0.7-0.3
	c-0.1-0.9-0.1-1.9,0-2.8C608.1,277.7,608.3,274.8,608.5,272.5z"/>
				<path class="st25" d="M482.9,194.9c2.5-0.1,5.1,0.1,7.6-0.7c1.2-0.4,2.5-0.2,3.8-0.2c2.4,0,2.4,0,2.9,2.7c0.1,0.7,0.6,1.4,0.9,2.1
	c0.2,0.6,1.2,1.7-0.2,1.7c-4.8,0.1-9.7,0.1-14.8,0.1C482.5,198.5,482.6,196.7,482.9,194.9z"/>
				<path class="st26" d="M1437.2,359.9c0.1-5.9-0.3-11.7-2.1-17.4c-0.4-1.3-0.5-2.5,0.1-3.7c0.2-0.4,0.6-0.8,0.9-0.9
	c0.3,0,0.9,0.4,1,0.7c0.6,1.8,1.1,3.6,1.5,5.5c1.4,7.2,1.8,14.5,0.1,21.7c-0.1,0.6-0.2,1.3-0.5,1.8c-0.2,0.3-0.7,0.5-1.1,0.6
	c-0.1,0-0.4-0.5-0.4-0.7c0.1-1.3,0.3-2.5,0.3-3.8C1437.1,362.4,1437.2,361.1,1437.2,359.9z"/>
				<path class="st27" d="M1704.1,296.7c0.1-6.1-0.3-12.1-2.1-18c-0.2-0.7-0.5-1.6-0.3-2.3c0.2-0.9,0.5-2.2,1.1-2.4
	c1.3-0.4,1.3,1.1,1.5,1.9c2.4,8.7,3.2,17.6,1,26.5c-0.1,0.6-0.4,1.2-0.6,1.8c0,0.1-0.3,0.2-0.4,0.1c-0.3-0.1-0.7-0.3-0.7-0.4
	C1703.8,301.5,1704,299.1,1704.1,296.7z"/>
				<path class="st28" d="M754.2,282.5c-2-2.9-2.1-5.2-2.3-7.3c-0.4-6-0.7-12.1,1-18.2c1.3,1.4,1.3,3.1,1.6,4.6c0.2,1.6,0.3,3.2,0.4,4.8
	c0.1,1.7,0.3,3.5,0.3,5.2c0,1.6,0,3.2-0.2,4.8C754.8,278.1,754.5,279.8,754.2,282.5z"/>
				<path class="st29" d="M1576.7,289.9c0.1,5.4-0.3,9.7-1.5,13.9c-0.1,0.3-0.7,0.4-1.1,0.5c-0.1,0-0.5-0.5-0.4-0.7
	c0.2-2.5,0.5-5.1,0.6-7.6c0.2-5.8-0.5-11.5-2-17c-0.2-0.6-0.5-1.2-0.5-1.8c-0.1-1.2,1-3.3,1.6-3c1.1,0.4,1.1,1.5,1.3,2.4
	C1576.2,281.1,1576.6,286,1576.7,289.9z"/>
				<path class="st28" d="M603.4,257.1c2.3,8.1,2.6,16.2,1.1,24.6c-0.5-0.3-1.1-0.4-1.2-0.7C601.2,273,601.3,265,603.4,257.1z"/>
				<path class="st30" d="M1309.8,354c0.1,5.2-0.3,9.5-1.5,13.6c-0.1,0.3-0.7,0.4-1.1,0.6c-0.1-0.3-0.4-0.6-0.4-0.8
	c0.2-2.7,0.5-5.4,0.6-8.1c0.2-5.6-0.5-11.1-2-16.6c-0.2-0.9-0.4-1.8-0.4-2.8c0-1.2,1-2.4,1.4-2.1c0.5,0.5,1,1.2,1.2,1.8
	C1309.3,344.7,1309.7,349.8,1309.8,354z"/>
				<path class="st31" d="M1364.3,972.7c-0.2-1.1-0.6-2.1-0.6-3.1c0.2-4.3,1.9-8,4.5-11.3c0.3-0.4,0.7-0.7,1.2-0.8
	c0.4-0.1,1-0.1,1.3,0.1c0.4,0.4,0.7,1,1,1.5c0.1,0.1,0.1,0.4,0,0.5c-2.7,4-3.5,8.9-6.3,12.8C1365.3,972.4,1364.9,972.4,1364.3,972.7
	z"/>
				<path class="st32" d="M1699.6,281c0.6,1.6,1.2,2.6,1.3,3.6c0.7,6,1.3,12-0.2,18.4c-0.6-0.9-1.2-1.4-1.3-2
	C1698.1,294.6,1698,288.1,1699.6,281z"/>
				<path class="st33" d="M1432.8,344.7c0.6,1.7,1.1,2.7,1.3,3.7c1,5.6,0.9,11.7-0.2,18c-0.6-0.7-1.2-1.1-1.4-1.6
	C1431.2,358.4,1431.1,352,1432.8,344.7z"/>
				<path class="st6" d="M1813.3,524.1c-0.3,0-0.6,0-0.8,0c0-19.4,0-38.8,0.1-58.2c0.2,0.9,0.5,1.8,0.5,2.8c0.2,17.5,0.3,35,0.5,52.5
	C1813.5,522.2,1813.4,523.2,1813.3,524.1z"/>
				<path class="st34" d="M1303.2,345.4c2.1,6.5,2,13.1,1.3,19.8c0,0.2-0.1,0.3-0.2,0.4c-0.2,0.2-0.5,0.5-0.7,0.5s-0.6-0.3-0.7-0.5
	C1301.3,358.9,1301.3,352.2,1303.2,345.4z"/>
				<path class="st35" d="M1570,280.9c0.5,1.9,1,3,1.1,4.2c0.7,5.2,0.8,10.4,0.2,15.6c0,0.3-0.1,0.7-0.2,0.9c-0.1,0.2-0.4,0.5-0.7,0.5
	c-0.2,0-0.6-0.2-0.6-0.4c-0.4-1.7-0.9-3.4-1-5.1C1568.5,291.6,1568.3,286.5,1570,280.9z"/>
				<path class="st31" d="M1375.2,973.3c-1.1-1.9-1.4-3.6-0.8-5.6c0.6-2.2,1.3-4.3,3.1-5.8c0.5-0.4,1.5-0.6,2.2-0.4
	c1,0.2,1.7,1.3,1.4,2.2C1379.9,967.3,1378.9,971,1375.2,973.3z"/>
				<path class="st7" d="M587.7,195.1c0-2.3-0.1-4.7-0.1-7C588.4,190.4,588.3,192.8,587.7,195.1z"/>
				<path class="st36" d="M1387.2,955.6c0.1-0.5,0.1-1,0.2-1.6c1.4,0.6,1.8,1.9,2.8,3C1388.5,957.5,1387.8,956.6,1387.2,955.6z"/>
				<path class="st36" d="M1385.2,954.3c0.4,0.3,0.8,0.5,1.1,0.8C1385.9,954.8,1385.5,954.6,1385.2,954.3z"/>
				<path class="st16" d="M231.8,1002.4c-0.4,3.5-0.7,7-1.2,10.4c-0.1,0.9-0.6,1.8-1.1,2.6c-0.6,0.8-1.5,1.1-2.5,0.7
	c-0.8-0.3-1.3-0.9-1.3-1.8c0-1.1,0-2.2-0.1-3.4c0-5.9-0.1-11.8-0.1-17.7c0-1.5,0.6-2.3,1.7-2.5c1.7-0.3,3,0.2,3.5,1.7
	c0.4,1,0.7,2.1,0.7,3.2c0.1,2.2,0,4.5,0,6.7C231.5,1002.4,231.6,1002.4,231.8,1002.4z"/>
				<path class="st37" d="M280.5,996.5c-0.1,1.1-0.1,1.9-0.2,2.7c-0.1,0.4-0.3,1-0.7,1.2c-1.6,0.9-3.4,1-5.1,0.7c-0.3-0.1-0.8-0.7-0.8-1
	c0.3-2.5,0.6-5.1,1.1-7.5c0.3-1.4,1.6-2.1,2.9-2s2.2,0.9,2.4,2.5C280.5,994.2,280.5,995.5,280.5,996.5z"/>
				<path class="st8" d="M418.6,870.7c0,2.2,0,4.5,0,6.7c-6.2,0-12.4,0-18.6,0c-1.3,0-2.5,0-3.8-0.1c-1-0.1-1.5-0.7-1.2-1.5
	c2.5-5.7,0.8-5,6.9-5C407.5,870.7,413.1,870.7,418.6,870.7z"/>
				<path class="st38" d="M920.5,839.2c-2.9-0.6-5.9-1.3-8.8-1.9c0.5-0.1,0.9-0.2,1.4-0.3c1.2-0.1,1.7-0.9,1.6-2
	c-0.2-1.7-0.4-3.4-0.6-5.2c0-0.2,0.2-0.6,0.4-0.7c0.2-0.1,0.8-0.1,0.8,0.1c1.8,3.2,4.2,5.9,5.1,9.5
	C920.6,838.9,920.5,839.1,920.5,839.2z"/>
				<path class="st6" d="M645.3,403.3c3.6-0.4,7.2-0.7,10.8-1.2c4.9-0.6,9.8-1.2,14.7-1.7c1.1-0.1,2.2-0.1,3.4-0.1
	c3.7-0.1,7.3,0.1,11-0.8c1.8-0.5,3.8-0.2,5.7-0.2c4,0,8,0,12-0.1c2.5,0,5.1,0.1,7.6-0.6c1.2-0.4,2.5-0.2,3.8-0.2
	c14.1,0,28.1,0,42.2,0c1.7,0,3.5,0.3,5.2,0.5c1.3,0.1,2.5,0.3,3.8,0.3c3.8,0.1,7.7,0.1,11.5,0.1c2.9,0,5.7,0.2,8.6,0.6
	c3.4,0.5,7,0.2,10.5,0.3c2.9,0.1,5.7,0.1,8.6,0.6c3.1,0.5,6.4,0.2,9.6,0.3c2.1,0.1,4.1,0.4,6.2,0.6c0.5,0,0.9,0.2,1.4,0.2
	c6.1-0.2,12.1,0.7,18.1,1.1c2.2,0.2,4.4,0.5,6.6,0.7c0.5,0.1,1,0.1,1.4,0.2c5.1,0.4,10.2,0.6,15.2,1.1c4.1,0.4,8.2,1.1,12.3,1.6
	c3.6,0.4,7.3,0.7,10.9,1.2c3.8,0.4,7.6,1,11.4,1.5c1,0.1,1.6-0.3,1.9-1.1c0.4-1,0.7-2.1,0.8-3.2c0.1-1.8,0.1-3.5,0.1-5.3
	c0-38.9,0-77.7,0.1-116.6c0-3-0.2-6,0.6-9.1c0.4-1.3,0.2-2.9,0.2-4.3c0.1-18.1,0.1-36.1,0.1-54.2c0-1.3,0-2.6,0.1-3.8
	c0-0.9,0.6-1.6,1.5-1.5c3,0.5,5.9,1.1,8.9,1.6c1.6,0.3,2,1.4,2,2.8c0,1.1,0,2.2,0,3.4c0,64.9,0,129.9,0,194.8c0,1.1,0,2.2,0,3.4
	c-0.1,1.8-0.7,2.2-2.5,1.8c-7.2-1.5-14.4-2.7-21.6-3.6c-5.7-0.7-11.4-1.3-17.1-2c-6.8-0.7-13.6-1.7-20.4-1.8
	c-5.4-1.7-11.2-0.2-16.6-1.7c-0.9-0.3-1.9-0.1-2.9-0.1c-4-0.2-8,0.2-11.9-0.8c-1.2-0.3-2.5-0.1-3.8-0.1c-4.1-0.2-8.3-0.1-12.4-0.7
	c-3.7-0.6-7.7-0.2-11.5-0.3c-2.7,0-5.4,0.1-8.1-0.7c-1.2-0.4-2.5-0.2-3.8-0.2c-5.1,0-10.2-0.1-15.4-0.1c-2.5,0-5.1,0.1-7.6-0.6
	c-1.3-0.4-2.9-0.2-4.3-0.2c-11.2-0.1-22.4-0.1-33.6-0.2c-1.9,0-3.8-0.4-5.7-0.5c-1.7-0.1-3.5-0.3-5.3-0.3c-19.7,0-39.3,0-59,0
	c-1.7,0-3.5,0-5.2,0C645.2,403.9,645.3,403.6,645.3,403.3z"/>
				<path class="st0" d="M448.4,631.8c0,0,0-0.7,0.1-1.3c0.1-0.9,0.6-1.5,1.4-1.7c1.7-0.4,3.4-0.8,5.2-1c6.1-0.9,12.3-1.8,18.4-2.7
	c2.8-0.4,5.7-0.3,8.6-0.8c4.2-0.8,8.5-0.8,12.8-1.3c2.1-0.2,4.1-0.5,6.2-0.7c0.3,0,0.6-0.1,0.9-0.1c5.7-0.4,11.5-0.7,17.2-1.1
	c2.7-0.2,5.4-0.1,8.1-0.7c2.5-0.5,5.1-0.2,7.7-0.3c2.5-0.1,5.1,0.1,7.6-0.7c0.9-0.3,1.9-0.2,2.9-0.2c5.9-0.2,11.8,0,17.7-0.8
	c4.6-0.7,9.3-0.2,13.9-0.2c3,0,6.1,0.2,9-0.7c1.2-0.3,2.5-0.2,3.8-0.2c6.7,0,13.4,0,20.2-0.1c4,0,8,0.3,11.9-0.7
	c1.2-0.3,2.5-0.1,3.8-0.1c34.1,0,68.1,0,102.2,0c2.1,0,4.1,0.4,6.2,0.6c1.4,0.1,2.9,0.2,4.3,0.2c7.4,0.1,14.7,0.1,22.1,0.1
	c3.3,0,6.7-0.2,10,0.7c1,0.3,2.2,0.1,3.3,0.1c4.3,0,8.6,0,13,0.1c2.4,0,4.8-0.1,7.1,0.6c1,0.3,2.2,0.2,3.3,0.2
	c5.7,0.2,11.5-0.4,17.2,0.9c1.2,0.3,2.6,0,3.8,0.1c4,0.2,8-0.2,11.9,0.8c1.5,0.4,3.2,0.1,4.8,0.2c2.7,0.1,5.4-0.2,8.1,0.8
	c0.3,0.1,0.6,0.1,0.9,0.1c5.4,0.4,10.8,0.6,16.2,1.1c4.7,0.4,9.5,1.2,14.2,1.6c3.5,0.3,7,0.7,10.4,1.1c8.7,1,17.3,2.4,25.9,4.1
	c2.6,0.5,3.2,1.3,3.2,3.9c0,0.8,0.1,1.6-0.2,2.4c-0.2,0.5-0.8,0.8-1.4,1.1c-0.2,0.1-0.6-0.1-0.9-0.1c-5.4-1.3-11-2-16.5-2.6
	c-3.3-0.4-6.6-1.1-9.9-1.6c-3-0.5-6-0.3-9-0.9c-4.4-0.8-8.9-0.8-13.3-1.2c-3-0.3-6-0.7-9-0.9s-6.1,0.3-9-0.8
	c-0.3-0.1-0.6-0.1-0.9-0.1c-6.2,0.4-12.4-1-18.6-1.1c-3.2,0-6.3-0.2-9.5-0.7c-3.6-0.6-7.3-0.2-11-0.3c-2.2-0.1-4.4-0.5-6.6-0.6
	c-1.3-0.1-2.6-0.2-3.8-0.2c-3.7,0-7.4,0-11-0.1c-2.9,0-5.7,0.1-8.6-0.7c-1.2-0.3-2.5-0.2-3.8-0.2c-6.1,0-12.2,0-18.2-0.1
	c-3.7,0-7.3,0.3-11-0.7c-1.2-0.3-2.5-0.1-3.8-0.1c-38.6,0-77.1,0-115.7,0c-2.2,0-4.4,0.5-6.6,0.6c-1.3,0.1-2.6,0.1-3.8,0.2
	c-6.9,0-13.8,0.1-20.6,0.1c-3.2,0-6.4-0.2-9.5,0.7c-1,0.3-2.2,0.1-3.3,0.1c-4.5,0-9,0-13.4,0.1c-1.7,0-3.5,0.3-5.2,0.5
	c-0.6,0.1-1.3,0.3-1.9,0.3c-7.5-0.1-15,0.4-22.5,1c-3.5,0.3-7-0.2-10.5,0.8c-1,0.3-2.2,0.1-3.3,0.1c-3.3,0.1-6.7-0.2-10,0.8
	c-0.3,0.1-0.6,0.1-1,0.1c-5.6-0.4-11.1,0.9-16.7,1.1c-4.6,0.2-9.1,1.1-13.7,1.6c-3.6,0.4-7.3,0.7-10.9,1.2c-3.3,0.4-6.6,0.9-9.9,1.4
	c-2.5,0.4-5,1-7.5,1.4c-2.2,0.4-3-0.3-3.1-2.5C448.4,633.4,448.4,632.9,448.4,631.8z"/>
				<path class="st6" d="M913.5,429.5c-3.7-0.6-7.2-1.1-10.7-1.7c-3.6-0.6-7.2-1.1-10.8-1.6c-3.8-0.5-7.6-1.1-11.3-1.6
	c-0.5-0.1-0.9-0.2-1.4-0.2c-4.8-0.4-9.5-0.7-14.3-1.1c-4.9-0.5-9.8-1.1-14.7-1.7c-1-0.1-1.9-0.1-2.9-0.1c-3.7-0.1-7.3,0.2-11-0.8
	c-1.2-0.3-2.5-0.1-3.8-0.1c-3.5-0.1-7-0.1-10.5-0.7c-3.4-0.6-7-0.2-10.5-0.3c-1.9-0.1-3.8-0.4-5.7-0.6c-1.3-0.1-2.5-0.3-3.8-0.3
	c-3.7-0.1-7.4,0-11-0.1c-2.2-0.1-4.4-0.5-6.6-0.6c-1.3-0.1-2.6-0.2-3.8-0.2c-5.3,0-10.6-0.1-15.8-0.1c-2.9,0-5.7,0.1-8.6-0.7
	c-1.3-0.4-2.9-0.2-4.3-0.2c-13.3-0.1-26.6-0.1-39.8-0.2c-2.1,0-4.1-0.4-6.2-0.6c-1.1-0.1-2.2-0.2-3.3-0.2c-15.2,0-30.4,0-45.6,0
	c-1.3,0-2.5,0.2-3.8,0.3c-1.9,0.2-3.8,0.5-5.7,0.5c-13.4,0.1-26.9,0.1-40.3,0.2c-2.4,0-4.8-0.1-7.1,0.6c-1.2,0.4-2.5,0.2-3.8,0.2
	c-5.1,0-10.2,0-15.4,0.1c-3,0-6.1-0.1-9,0.7c-1.3,0.4-2.9,0.1-4.3,0.2c-5.9,0.2-11.8-0.3-17.7,0.8c-3.1,0.6-6.4,0.1-9.6,0.2
	c-2.1,0.1-4.1,0.4-6.2,0.6c-1.6,0.1-3.2,0.2-4.8,0.3c-3.5,0.1-7-0.2-10.5,0.8c-0.9,0.3-1.9,0.1-2.9,0.1c-3.2,0.1-6.4-0.2-9.5,0.8
	c-0.3,0.1-0.6,0.1-1,0.1c-5.2,0.4-10.5,0.6-15.7,1.1c-4.6,0.4-9.1,1.1-13.7,1.7c-2.7,0.3-5.4,0.8-8,1c-5.7,0.5-11.4,1.4-17,2.5
	c-1.6,0.3-2.4-0.4-2.6-2c-0.1-1-0.1-1.9,0-2.9c0.1-1.3,0.8-2,2.1-2.3c3.9-0.7,7.8-1.4,11.8-2c4.7-0.7,9.4-1.3,14.2-1.8
	c4.4-0.5,8.9-0.4,13.3-1.2c5-0.9,10.2-0.3,15.2-1.6c1.1-0.3,2.2-0.2,3.3-0.2c3.2-0.1,6.4,0.1,9.5-0.8c1.5-0.4,3.2-0.1,4.8-0.2
	c3.2-0.1,6.3-0.1,9.5-0.7c2.9-0.6,6.1-0.2,9.1-0.3c2.2-0.1,4.4-0.4,6.6-0.6c1.3-0.1,2.5-0.2,3.8-0.2c3.7-0.1,7.4,0,11-0.1
	c2.1-0.1,4.1-0.4,6.2-0.6c1.3-0.1,2.5-0.2,3.8-0.2c4.5-0.1,9,0,13.4-0.1c3.5-0.1,7,0.2,10.5-0.7c1.2-0.3,2.5-0.1,3.8-0.1
	c11.2,0,22.4-0.1,33.6-0.2c1.9,0,3.8-0.4,5.7-0.5c1.4-0.1,2.9-0.3,4.3-0.3c21.8,0,43.5,0,65.3,0c1.7,0,3.5,0.3,5.2,0.5
	c1.6,0.1,3.2,0.3,4.8,0.3c11.4,0.1,22.7,0.1,34.1,0.2c2.2,0,4.4,0.4,6.6,0.6c1.3,0.1,2.5,0.2,3.8,0.2c4.3,0,8.6,0,13,0.1
	c3.7,0.1,7.3,0.1,11,0.7c3.9,0.6,8,0.2,12,0.3c2.5,0,5.1,0.2,7.6,0.6c3,0.5,6.1,0.2,9.1,0.3c2.4,0.1,4.8-0.2,7.1,0.7
	c0.3,0.1,0.6,0.1,0.9,0.1c5.4,0.2,10.8,0.2,16.2,0.9c6,0.8,12.1,0.6,18.1,1.2c6.2,0.6,12.3,1.3,18.5,1.9c6,0.6,12,1.7,17.9,2.6
	c4.4,0.7,8.8,1.3,13.2,2c0.2,0,0.3,0,0.5,0C913.9,423.7,914.5,423.3,913.5,429.5z"/>
				<path class="st6" d="M726.9,610.6c2.2,0,4.4,0,6.7,0c2.5,0,5.1,0.1,7.6-0.7c1.2-0.4,2.5-0.2,3.8-0.2c20.1,0,40.3,0,60.4,0
	c1.7,0,3.5,0.3,5.2,0.5c0.6,0.1,1.3,0.2,1.9,0.3c8.3,0.4,16.6,0.7,24.8,1.1c2.1,0.1,4.1,0.5,6.2,0.6c2.2,0.2,4.5,0.2,6.7,0.3
	c2.7,0.1,5.4-0.2,8.1,0.8c0.3,0.1,0.6,0.1,0.9,0.1c5.2,0.4,10.5,0.6,15.7,1.1c4.3,0.4,8.5,1.1,12.8,1.6c4.6,0.6,9.1,1.3,13.7,1.9
	c0.9,0.1,1.6-0.3,1.7-1.2c0.1-1.6,0.1-3.2,0.1-4.8c0-52.3,0-104.6,0-156.9c0-5.9,0-11.8,0.1-17.8c0-1,0-1.9,0.1-2.9
	c0.1-0.9,0.8-1.5,1.7-1.4c2.4,0.3,4.7,0.7,7,1.2c1,0.2,1.6,1.1,1.6,2.1c0.1,1.3,0.1,2.6,0.1,3.8c0,60.1,0,120.3,0,180.4
	c0,1.6,0.4,3.2-0.6,4.8c-3.4-0.6-6.8-1.1-10.2-1.7c-6.1-1.2-12.2-2.1-18.4-2.7c-4.1-0.4-8.2-1.1-12.3-1.7c-0.5-0.1-1-0.1-1.4-0.1
	c-4.8-0.4-9.6-0.4-14.3-1.2c-4-0.6-8-0.4-11.9-1c-4.6-0.7-9.3-0.3-13.8-1c-5.3-0.8-10.6-0.3-15.7-1c-6.5-0.9-13.1-0.2-19.6-1
	c-7.5-0.9-15-0.5-22.5-0.8c-0.6,0-1.3,0.1-1.9,0c-6.6-1.4-13.4-0.6-20.1-0.9c-2.7-0.1-5.4-0.2-8.2,0
	C737.6,612.8,732.3,611.7,726.9,610.6z"/>
				<path class="st6" d="M762.5,177c1.4-0.1,2.9-0.5,4.3-0.2c5.2,1.2,10.5,0.6,15.7,0.8c3.3,0.1,6.7,0.1,10,0.7c2.8,0.5,5.7,0.2,8.6,0.3
	c2.4,0.1,4.8-0.2,7.1,0.7c0.3,0.1,0.6,0.1,0.9,0.1c5.9-0.3,11.8,0.9,17.6,1.1c2.1,0.1,4.1,0.4,6.2,0.7c0.5,0.1,1,0.2,1.4,0.2
	c5.8-0.4,11.5,0.7,17.2,1.2c5.1,0.5,10.2,0.3,15.2,1.5c0.5,0.1,0.9,0.1,1.4,0.2c4.8,0.4,9.5,0.6,14.3,1.1c3.6,0.4,7.2,1,10.9,1.5
	c1.7,0.2,3.5,0.3,5.2,0.4c1.4,0.1,2.8,0.2,4.2,0.3c1.2-1.6,0.6-3.4,0.6-5.1c0-26.9,0-53.7,0.1-80.6c0-2.2,0.4-4.4,0.6-6.6
	c0.1-1.4,0.2-2.9,0.2-4.3c0-6.6,0-13.1,0.1-19.7c0-1,0-1.9,0.1-2.9c0.1-1.5,0.6-2,2.1-2.1c2.7,0,5.4,0.1,8.1,0.1
	c0.1,1.4,0.2,2.9,0.2,4.3c0,15.5,0,31,0,46.5c0,2.5,0.1,5.1-0.6,7.6c-0.4,1.5-0.2,3.2-0.2,4.8c0,19.8,0,39.6,0,59.4
	c0,1.1,0,2.2,0,3.4c0,2.8-0.3,4-4.1,3.1c-5.6-1.3-11.2-2-16.9-2.7c-3.3-0.4-6.6-1.1-9.9-1.6c-2.8-0.4-5.7-0.3-8.5-0.9
	c-3.9-0.8-7.9-0.9-11.9-1.2c-2.9-0.2-5.8,0.1-8.5-0.8c-0.1-0.1-0.3-0.1-0.5-0.1c-5.6-0.4-11.1-0.7-16.7-1.1
	c-2.5-0.1-5.1-0.2-7.6-0.7c-2.6-0.5-5.4-0.2-8.1-0.3c-2.4-0.1-4.8,0.1-7.1-0.7c-1-0.3-2.2-0.2-3.3-0.2c-5.7-0.3-11.4,0.2-17.2-0.8
	c-3.6-0.6-7.3-0.1-11-0.2c-3.8-0.1-7.6,0.1-11.4-0.7c-2.3-0.5-4.8-0.2-7.2-0.3c-0.9,0-1.5-0.6-1.5-1.5
	C762.4,180.2,762.5,178.6,762.5,177z"/>
				<path class="st6" d="M767.5,188c2,0.3,4.1,0.6,6.1,0.9c1.3,0.1,2.5,0.2,3.8,0.2c3.7,0,7.4,0,11,0.1c2.9,0,5.7,0.1,8.6,0.6
	c2.6,0.5,5.4,0.2,8.1,0.3c3.8,0.1,7.7-0.2,11.4,0.8c1.5,0.4,3.2,0.1,4.8,0.2c3.5,0.1,7-0.2,10.5,0.8c1.2,0.3,2.5,0.1,3.8,0.2
	c3.2,0.1,6.4-0.2,9.5,0.8c0.1,0.1,0.3,0.1,0.5,0.1c5.4,0.4,10.8,0.6,16.2,1.1c4.8,0.4,9.5,1,14.2,1.6c2.8,0.3,5.7,0.9,8.5,1.1
	c5.4,0.3,10.7,1.4,16.1,2.1c3.9,0.6,7.8,1.3,11.7,2.1c0.4,0.1,1,0.4,1.1,0.8c0.5,1.7,0.8,3.4-0.2,5.1c-0.2,0.3-0.8,0.5-1.2,0.5
	c-4.1-0.6-8.2-1.4-12.2-2c-3.9-0.6-7.9-1.1-11.8-1.6c-3.8-0.5-7.6-1.1-11.3-1.6c-0.5-0.1-0.9-0.2-1.4-0.2
	c-5.2-0.4-10.6-0.3-15.7-1.2c-5.4-0.9-10.9-0.2-16.2-1.6c-0.9-0.2-1.9-0.1-2.9-0.2c-3.7-0.1-7.3,0.1-11-0.8
	c-1.7-0.4-3.5-0.1-5.3-0.2c-3.7-0.1-7.3-0.1-11-0.7c-3.6-0.6-7.3-0.2-11-0.3c-2.5,0-5.1,0.1-7.6-0.7c-1-0.3-2.2-0.2-3.3-0.2
	c-3.5,0-7-0.2-10.6,0c-5.6,0.3-11.1-1-16.7-1c-1.1,0-1.8-0.6-1.8-1.8C762.3,187.9,762.3,188.2,767.5,188z"/>
				<path class="st0" d="M753.6,593.6c5-0.8,10-1.4,15.1-1.4c15,0.1,30,0,45.1,0.1c1.9,0,3.8,0.4,5.7,0.6c1.3,0.1,2.5,0.2,3.8,0.3
	c4.3,0.2,8.6-0.3,12.8,0.9c0.1,0,0.3,0,0.5,0c5.1,0.4,10.2,0.5,15.2,1.1c3.6,0.4,7.2,1.4,10.7,2.2c0.9,0.2,1.8,0.8,2.4,1.4
	c0.5,0.5,0.8,1.5,0.7,2.1c-0.2,0.6-0.9,1.2-1.6,1.6c-0.5,0.3-1.3,0.2-1.9,0.1c-5.3-0.8-10.6-1.8-16-2.5c-4.6-0.6-9.2-0.8-13.8-1.1
	c-3.8-0.2-7.6-0.1-11.4-0.8c-3.6-0.6-7.3-0.2-11-0.3c-2.1-0.1-4.1-0.4-6.2-0.6c-1.4-0.1-2.9-0.2-4.3-0.3c-4.8-0.2-9.5,0.1-14.3-0.8
	c-3.6-0.6-7.3-0.2-11-0.2c-2.4,0-4.7-0.1-7.1-0.6c-2.5-0.5-5.1-0.3-7.6-0.3C757.4,595.2,755.4,595.1,753.6,593.6z"/>
				<path class="st0" d="M762.4,807.4c6.6-2.1,13.2-2.6,19.8-3.1c7.8-0.6,15.6-0.7,23.4-0.7c2.1,0,4.1,0.4,6.2,0.6
	c1.6,0.1,3.2,0.2,4.8,0.3c5.2,0.2,10.5-0.4,15.7,0.9c0.9,0.2,1.9,0.1,2.9,0.1c3,0.1,6.1-0.2,9,0.8c0.7,0.2,1.6,0.1,2.4,0.2
	c8.6,0.3,17.1,1.7,25.4,3.9c0.5,0.1,1,0.2,1.3,0.5s0.7,0.8,0.6,1.1c-0.1,0.4-0.6,0.9-0.9,0.9c-1.4,0.1-2.9,0.3-4.3,0
	c-4.4-0.7-8.9-1-13.2-1.9c-5.7-1.1-11.4-0.3-17.1-1.5c-3.4-0.7-7-0.2-10.5-0.3c-1.9-0.1-3.8-0.4-5.7-0.6c-1.6-0.1-3.2-0.3-4.8-0.3
	c-10.7-0.1-21.4-0.1-32.1-0.2c-2.2,0-4.4-0.4-6.6-0.6c-1.4-0.1-2.9-0.2-4.3-0.2C770.4,807.4,766.4,807.4,762.4,807.4z"/>
				<path class="st0" d="M801.5,387c3.8,0,7.6-0.1,11.4,0.6c3.1,0.6,6.4,0.1,9.6,0.3c4.3,0.3,8.6,0.6,12.8,1.2c4.6,0.6,9.1,1.5,13.7,1.8
	c3.6,0.2,7.2,1,10.8,1.5c3.3,0.5,6.6,0.8,9.9,1.2c0.9,0.1,1.9,0.2,2.8,0.5c1.1,0.4,2,1.8,1.8,2.6c-0.3,1.2-1.9,2.5-3.2,2.3
	c-4.5-0.8-9.1-1.6-13.6-2.3c-5.2-0.8-10.4-1.4-15.6-2.2c-5.7-0.9-11.3-1.6-17-2c-4.1-0.2-8.2-1.1-12.3-1.6c-0.6-0.1-1.3-0.1-1.9-0.1
	c-5.2-0.3-10.5-0.7-15.7-1c-0.6,0-1.3-0.3-1.8-0.6c-0.3-0.2-0.7-0.7-0.7-1.1s0.5-1,0.8-1C796,387,798.7,387,801.5,387z"/>
				<path class="st0" d="M891.4,599.1c2.1-0.2,3.9,0.4,5.5,1.6c2.5,1.9,2.1,5.3-0.8,6.6c-2.9,1.3-8.5,0.3-10.8-2
	c-1.4-1.3-1.4-2.9,0.1-4.2C887.1,599.6,889.1,598.8,891.4,599.1z"/>
				<path class="st13" d="M471.4,387.4c0,2.7-2.4,5.2-5.1,5.2c-2.6,0.1-4.2-1.9-4.4-5.2c-0.1-2.4,1.9-4.5,4.5-4.5
	C469.5,382.9,471.3,384.6,471.4,387.4z"/>
				<path class="st13" d="M459.8,236.1c0-2.8,1.6-4.6,4.2-4.8c2.3-0.2,4.8,1.9,4.6,4.9c-0.2,2.5-2.1,4.6-4.4,4.6
	C461.6,240.8,459.8,238.7,459.8,236.1z"/>
				<path class="st13" d="M465.5,306.3c-2.5,0-4.6-2.1-4.5-4.5c0.1-2.2,2.5-4.8,4.5-4.9c2.1-0.1,4.9,2.9,4.8,5.1
	C470.1,304.6,468.1,306.3,465.5,306.3z"/>
				<path class="st13" d="M459.8,761.3c-2.6,0-4.6-2-4.6-4.4c0-1.7,2.6-4.2,4.5-4.3c2.1-0.1,4.9,2.5,4.8,4.4
	C464.4,759.6,462.4,761.4,459.8,761.3z"/>
				<path class="st13" d="M464.3,603.8c-2.2,0-4.2-2-4.3-4.3c0-1.7,2.6-4.3,4.5-4.3c2.3-0.1,4.1,1.9,4,4.4
	C468.5,602.2,466.8,603.8,464.3,603.8z"/>
				<path class="st13" d="M464.1,542.4c-2.7,0-4.3-1.8-4.2-4.5c0.1-2.3,1.7-3.9,3.8-4.1c1.9-0.2,4.9,3,4.8,4.5
	C468.1,540.6,466.3,542.5,464.1,542.4z"/>
				<path class="st13" d="M463.7,814.7c0,2.2-1.7,4-3.8,4.1c-2.3,0.1-4-1.8-4-4.3c0-2.3,1.7-4.1,3.7-4.1
	C461.9,810.2,463.7,812.2,463.7,814.7z"/>
				<path class="st15" d="M468.5,453.8c-0.1,2.1-2.1,4-4.1,3.8c-1.6-0.2-3.5-2.4-3.5-4.1c0.1-1.8,2.4-3.5,4.6-3.3
	C467.5,450.4,468.5,451.6,468.5,453.8z"/>
				<path class="st14" d="M888,399.4c0,1.5-2.3,3.2-3.8,2.6c-0.9-0.4-1.6-1.4-2.4-2.1c-0.1-0.1-0.1-0.3-0.1-0.5
	c-0.1-1.3,1.6-2.8,3.3-2.9S888,397.7,888,399.4z"/>
				<path class="st39" d="M1151,527.8c-0.4-3.3,1.6-6.2,6.3-7.1c0.4-0.1,1,0,1.4,0.1c3.8,1.2,6,5.6,4.7,9.2c-0.2,0.6-0.6,1.1-1.1,1.6
	c-1.4,1.4-3.1,2.2-5.1,2.2C1153.5,533.8,1150.4,532.3,1151,527.8z"/>
				<path class="st8" d="M1158.6,308.1c4.6,0.1,7.8,5.2,6,9.2c-0.9,2-2.4,3.4-4.1,4.6c-1.3,0.9-2.7,0.8-4-0.1c-1-0.8-2-1.6-2.8-2.6
	c-2.3-2.8-2.2-4.5-0.2-7.7C1154.9,309.4,1156.2,307.8,1158.6,308.1z"/>
				<path class="st6" d="M1039.2,297.6c32.5,0,64.9,0,97.4,0c6.1,0,6.2-0.6,5.5,6.2c-0.3,3.3-0.6,6.7-0.6,10c0,41.8,0,83.5,0,125.3
	c0,7,0.6,6.4-6.5,6.4c-63.3,0-126.7,0-190,0.1c-2.2,0-4.4,0.3-6.6,0.6c-2,0.2-3-0.5-3.1-2.6c-0.1-1,0-1.9,0-2.9
	c0-45.9,0-91.8,0-137.7c0-5.4-0.2-5.3,5.2-5.3C973.3,297.6,1006.2,297.6,1039.2,297.6L1039.2,297.6z"/>
				<path class="st6" d="M1801.9,668.2c0.4-0.2,1.1-0.2,1.3-0.5c1.2-2,0.9-4.9-0.8-6.1c-1.2-0.9-2.8-1.5-4.3-2c-0.9-0.3-1.9,0-2.9-0.1
	c-3.9-0.4-6.2,1.9-8.1,4.9c-0.4,0.6-0.5,1.5-0.6,2.3c-0.1,1.1,0.1,2.2-0.1,3.4c-0.4,3.8,0.9,6.5,4.6,7.9c0.3,0.1,0.6,0.8,0.5,1
	c-0.2,0.3-0.7,0.6-1.1,0.6c-1.6,0.1-3.2,0.1-4.8,0.1c-43,0-86,0-129,0c-1.1,0-2.2,0-3.4,0c-2.2-0.1-4.2,0.5-5.5,2.3
	c-1,1.4-2.3,1.6-3.8,1.6c-1.6,0-3.2,0-4.8,0c-3.9,0-4.7-0.7-5.2-4.5c-0.1-0.5,0-1,0-1.4c0.1-1,1-1.8,1.9-1.5s1.8,0.7,2.6,1.1
	c1.9,0.9,3.6,0.6,5.5-0.2c4.5-1.7,6.9-5.1,7.8-9.6c0.6-3-0.7-5.7-2.4-8c-3.4-4.8-7.3-5.8-13-3.6c-0.3,0.1-0.6,0.2-0.9,0.3
	c-0.8,0.3-1.5-0.2-1.6-1.2c-0.1-1.3-0.1-2.6-0.1-3.8c0-31.8,0-63.6,0-95.5c0-1.3,0-2.6,0.1-3.8c0.2-1.7,1-2.5,2.8-2.7
	c1.4-0.1,2.9-0.1,4.3-0.1c53.1,0,106.2,0,159.3,0c4.2,0,8.2-0.8,11.9-2.9c0,1.4,0.1,2.9,0.1,4.3c0,41.6,0,83.2,0,124.8
	c0,1.4-0.1,2.9-0.1,4.3c-4,0-8,0-12,0c-1.6,0-3.2,0-4.5-1.8c1.3-0.1,2.4,0,3.5-0.2c2.9-0.5,4.9-3.5,4.4-6.4c-0.2-1-1-1.1-1.8-1.3
	C1801.3,669.4,1801.4,668.8,1801.9,668.2z"/>
				<path class="st6" d="M935.1,66.3c28.6,0,57.2,0,85.9,0c1.6,0,3.2,0,4.8,0.2c0.5,0.1,1.1,0.7,1.2,1.2c0.2,0.7,0.2,1.6,0.2,2.4
	c0,3.4,0.3,6.7,0,10.1c-1.6,16.4-0.6,32.9-0.7,49.3c-0.2,16.6,0,33.3,0,49.9c0,16.5,0,32.9,0,49.4c0,8.8,0,17.6,0,26.4
	c0,3.8-0.3,7.7,0.7,11.4c0.3,1,0.1,2.2,0.1,3.3c0,6.2,0,12.5,0,18.7c0,1.1,0,2.2-0.1,3.4c-0.1,0.9-0.6,1.5-1.5,1.6s-1.9,0.1-2.9,0.1
	c-27.7,0-55.3,0-83,0c-0.8,0-1.6,0-2.4,0c-1.5-0.1-2.1-0.6-2.1-2c-0.1-1.6-0.1-3.2-0.1-4.8c0-72.1,0-144.2,0-216.3
	C935.1,69.1,935.1,67.7,935.1,66.3L935.1,66.3z"/>
				<path class="st6" d="M1038.3,540.5c-32.5,0-64.9,0-97.4,0c-6.1,0-5.8,0.3-5.8-5.7c0-26.7,0-53.4,0-80.1c0-5.7-0.2-5.4,5.5-5.4
	c65.1,0,130.2,0,195.2,0c0.8,0,1.6,0,2.4,0c2.9,0.1,3.1,0.4,3.2,3.4c0,1.1,0,2.2,0,3.4c0,26.1-0.1,52.1-0.1,78.2
	c0,1.4,0,2.9-0.1,4.3c0,1.2-0.8,1.7-1.9,1.8c-1.4,0.1-2.9,0.1-4.3,0.1C1102.9,540.5,1070.6,540.5,1038.3,540.5L1038.3,540.5z"/>
				<path class="st13" d="M899.6,163.5c-0.2,1-0.3,2-0.7,2.9c-1.2,2.8-2.4,5.6-3.8,8.2c-0.8,1.4-2.1,2.4-4,2c-1.2-0.2-2-1.3-1.8-2.4
	c0.1-0.5,0.3-0.9,0.5-1.4c2.1-4.1,4.2-8.2,6.4-12.3c0.7-1.2,2-1.1,2.5,0.3C899.1,161.7,899.3,162.6,899.6,163.5z"/>
				<path class="st0" d="M442.4,231.8c-2.4,0-4.8,0.2-7.2,0c-1.8,0-2.2-0.9-2.3-4.5c-0.1-2.4,0-4.9,0-7.1c0-33.2,0-66.6,0-99.8
	c0-4.1-0.4-8.3-0.6-12.4c0-0.9-0.1-1.9-0.1-2.6c0-11.4,0-22.7,0-34.2c0-3.8,0.6-4.9,2.6-4.9c2.9,0,5.7,0.2,8.6,0.2
	c0,9.9,0.1,19.7,0.1,29.6c0,11.4,0,22.7,0,34.2c0,3.6-0.4,7.1-0.5,10.7c-0.1,3-0.3,6-0.3,9c0,24,0,48,0,72.1
	C442.6,225.2,442.5,228.4,442.4,231.8z"/>
				<path class="st16" d="M462.6,123.8c-0.3,0-0.7,0-0.9-0.1c-2.2-0.8-3.1-2.6-3.5-4.7c-0.3-1.7,0.6-3.1,1.8-4.2c1-0.9,3-0.7,3.9,0.4
	c0.8,1,1.5,2,2.1,3.1c1,1.7-0.5,4.9-2.4,5.4C463.3,123.7,462.9,123.7,462.6,123.8z"/>
				<path class="st13" d="M665.6,181.7c4.5-0.7,9.1-1.4,13.6-2c1.1-0.2,2.2-0.1,3.3-0.2c2.2-0.2,4.4-0.5,6.6-0.7c0.5-0.1,1-0.2,1.4-0.1
	c9.3,0.1,18.4-1.5,27.7-1.1c2.5,0.1,5.1-0.2,7.6-0.6c3.1-0.5,6.4-0.2,9.6-0.2c0.9,0,1.5,0.5,1.6,1.5c0.1,0.9,0.1,1.9-0.1,2.8
	c-0.1,0.5-0.7,1.1-1.2,1.2c-0.7,0.2-1.6,0.2-2.4,0.2c-22,0-44.1-0.1-66.1-0.1c-0.6,0-1.3-0.1-1.9-0.1
	C665.4,182,665.5,181.9,665.6,181.7z"/>
				<path class="st40" d="M104.2,136.5c2.9,0,5.3,2,5.3,4.4c0,2.3-1.9,4.2-4.2,4.3c-2.4,0.1-4.2-1.6-4.3-4.1
	C100.9,138.8,102.4,136.5,104.2,136.5z"/>
				<path class="st41" d="M1648.2,666.6c-0.3,1.9-1.1,4.2-3,5.7c-2,1.7-3.8,2.3-6.6,0.7c-3.8-2.2-4.4-4.4-3.5-7.4
	c0.2-0.8,0.4-1.5,0.5-2.3c0.6-3.2,2.7-4.9,5.9-4.7C1645.3,658.9,1648.4,662.3,1648.2,666.6z"/>
				<path class="st42" d="M1801.9,668.2c0,0.6,0,1.3,0,1.9c-0.1,0.1-0.3,0.2-0.3,0.3c-2.3,4.4-3.5,5.1-8.2,4.5c-2.2-0.3-3.7-1.8-3.9-4.1
	c-0.4-3.8,1.6-6.9,5.2-8c0.8-0.3,1.9-0.1,2.7,0.2C1799.9,663.8,1801,665.9,1801.9,668.2z"/>
				<path class="st13" d="M920.5,867.3c-13.8,3.1-27.4,2.7-41,1.9c3-0.4,6-0.8,9-1.3c8-1.3,16.1-2.5,24.1-3.8c5.4-0.9,10.6-2.3,15.6-4.6
	c0.4-0.2,0.9-0.1,1.3-0.1c0.2,0.4,0.4,0.6,0.4,0.9c0,3.4-0.1,6.7-0.1,10.1c-0.1,3.5-0.2,7-0.1,10.5c0,1.4-0.4,2.1-1.6,2.6
	c-1.9,0.8-3.8,1.6-5.8,2.3c-1.8,0.6-2.3,0.2-2.2-1.7c0.3-4.8,0.5-9.6,0.7-14.3C920.8,869.2,920.6,868.6,920.5,867.3z"/>
				<path class="st16" d="M1160.7,315.4c0,0.4-0.1,0.9-0.2,1.3c-0.4,1.6-2.1,2.1-3.3,1c-1-0.9-1.5-2-1.3-3.4c0.2-1.3,1.4-2.3,2.6-2.2
	c1.1,0.1,1.9,1,2.1,2.2C1160.7,314.7,1160.7,315,1160.7,315.4z"/>
				<path class="st8" d="M949.7,438.8c-2.5,0.3-4.5-1.1-5.5-3.3c-1-2.3-1.2-5,0.9-7.2c0.5-0.6,1-1.2,1.5-1.9c2.1-2.7,5.3-3,7.8-0.5
	c2.6,2.6,4.1,7.1,0.7,10.7C953.4,438.3,952.5,438.8,949.7,438.8z"/>
				<path class="st8" d="M1011.1,282.2c-4.7-0.1-7.6-4.4-6.3-9c0.7-2.5,2.3-4.1,4.2-5.6c2.6-2,4.8-2.2,7.4-0.2c1.2,0.9,2.3,2.2,3.2,3.5
	c1.2,1.7,1.1,3.5,0.1,5.4C1017.9,279.7,1014.2,282.3,1011.1,282.2z"/>
				<path class="st14" d="M949.2,428.5c0.3,0.1,0.7,0,0.9,0.2c0.7,0.6,1.5,1.3,1.9,2.1c0.8,1.6-0.1,3.5-1.5,3.9c-1.2,0.4-2.8-0.6-3.5-2
	C946.5,431.4,947.9,428.7,949.2,428.5z"/>
				<path class="st16" d="M1008,275.2c0-2.1,1.5-4.5,3.5-5.1c1.5-0.5,2.8,0.3,3.8,1.3c1,0.9,1.1,2.3,0.7,3.5c-0.8,2-2.4,2.9-4.3,3.4
	C1009.6,278.8,1008.1,277.5,1008,275.2z"/>
				<path class="st6" d="M432.9,65.7v107.8h-4v767.8H89.4V130.1c0-1.4,0.9-2.7,2.2-3.2l0,0l66.7-60.8v-0.3H432.9z"/>
				<path class="st10" d="M433.5,66.5c0,3.7-0.1,7.4-0.1,11.3c0,185.2,0,370.3,0,555.4c0,2.2,0,4.4-0.1,6.6c-0.1,2.1-1,3.2-2.6,3.3
	c-0.9,0.1-1.7,0.1-2.6,0c-1-0.1-1.6-0.8-1.7-2.1c-0.1-1.9-0.1-4-0.1-5.9c0-27.1,0-54,0-81.1c0-158.8,0-317.5,0-476.3
	c0-3.7,0-7.4,0-11.3C428.7,66.5,431.1,66.5,433.5,66.5z"/>
				<path class="st10" d="M434,834.9c-2.6,2.4-5.2,4.5-7.8,6.8c0-34.4,0.1-68.8,0.1-103.3c0-28.9,0-57.8,0-87c0-6,0.3-11.6,1.5-16.8
	c1.3-6.3,2.5-12.6,3.8-18.9c0.1-0.5,0.6-0.8,0.8-0.8c0.2,0,0.5,1.1,0.5,1.6c0.1,3.7,0.1,7.6,0.1,11.3c0,63.8,0,127.7,0,191.3
	c0,3.4-0.1,6.8,0.1,10C433.1,831.5,433.7,833,434,834.9z"/>
				<path class="st7" d="M605.8,211.5c0,1.7,0,3.1,0,4.6c0,3.5,0,3.5-3.5,3.8c-0.5,0-1.1-0.1-1.4,0.2c-0.6,0.5-1.3,1.1-1.4,1.7
	c0,0.6,0.5,1.5,1.1,1.9s1.5,0.6,2.2,0.7c0.8,0.1,1.6,0.1,2.6,0.2c0.1,0.8,0.3,1.5,0.3,2.3c0,3-0.2,6-0.3,9c-3.4,1-6.9,0.3-10.4,0.4
	c-0.9,0-1.4-0.6-1.4-1.6c0-1.1,0-2.2,0-3.4c-0.3-50.8-0.5-101.7-0.8-152.5c0-4,0-8,0-12c0-1.8,0.5-2.2,2.3-2.2
	c3.2,0,6.4,0.1,9.6,0.2c1.9,0.1,2.1,0.3,2.1,2.3c0,5-0.1,9.9-0.2,14.9c-1.1,39.8-0.9,79.6-1,119.4c0,1.8,0,3.5,0,5.3
	c-1.6,0-3-0.1-4.4,0c-1.1,0.1-1.7,0.9-1.9,1.9c-0.1,0.8,0.6,2,1.5,2.2C602.4,211.2,603.9,211.2,605.8,211.5z"/>
				<rect x="442.6" y="150.1" class="st7" width="86.1" height="73.5"/>
				<path d="M936.3,874.2c0-0.1,0-0.2,0-0.2c0-0.1,0-0.1,0-0.2c0-0.2,0-0.4-0.1-0.6c0-0.1-0.1-0.2-0.1-0.3c0-0.1-0.1-0.3-0.1-0.4
	c-0.1-0.4-0.4-0.8-0.6-1.2c-0.1-0.2-0.2-0.3-0.3-0.5c-0.1-4.1-0.1-8.3-0.2-12.4c-0.1-2.5-0.3-5.1-0.4-7.6c-0.1-3.5-2-6-4.9-7.7
	c-0.7-0.4-1.4-0.8-2-1.2c-1.8-2.5-4.4-2.5-6.9-2.6c-2.4-2.9-5.9-1-8.7-1.8c-0.1,0-0.1,0-0.2,0c-0.3-0.1-0.5-0.1-0.8-0.2
	c-1.8-0.2-3.6-0.5-5.5-0.7c-13.2-2.3-26.4-3.7-39.7-4.9c-18.9-1.6-37.9-2.9-56.9-3.9c-18.4-1-36.7-1.7-55.1-2
	c-10.5-0.2-20.9-0.3-31.4-0.4c-3.1,0-6.1-0.1-9.2-0.1c-4,0-8-0.2-11.9-0.4c-1.6,0-3.2,0.1-4.8,0.1c-6.6,0-13.2,0.1-19.8,0.1
	c-6.6,0-13.2-0.1-19.8-0.1c-1.6,0-3.2-0.1-4.8-0.1c-3.9,0.2-7.9,0.4-11.9,0.4c-3.1,0-6.1,0.1-9.2,0.1c-10.5,0.1-21,0.2-31.4,0.4
	c-18.4,0.3-36.7,1-55.1,2c-19,1-38,2.3-56.9,3.9c-13.2,1.1-26.5,2.6-39.7,4.9c-1.8,0.3-3.6,0.5-5.5,0.7c-0.3,0.1-0.5,0.1-0.8,0.2
	c-0.1,0-0.1,0-0.2,0c-2.9,0.8-6.3-1.1-8.7,1.8c-2.5,0-5.1,0.1-6.9,2.6c-0.6,0.4-1.3,0.8-2,1.2c-2.9,1.7-4.8,4.2-4.9,7.7
	c-0.1,2.5-0.3,5.1-0.4,7.6c-0.1,4.1-0.1,8.3-0.2,12.4c-0.1,0.1-0.2,0.3-0.3,0.5c-0.3,0.4-0.5,0.8-0.6,1.2c-0.1,0.1-0.1,0.3-0.1,0.4
	c0,0.1-0.1,0.2-0.1,0.3c0,0.2-0.1,0.4-0.1,0.6c0,0.1,0,0.1,0,0.2c0,0.1,0,0.2,0,0.2c0,1,0.2,2.1,0.6,3.1c0.8,2.5-0.4,5.3,0.7,7.8
	c1.9,2.9,4.8,4.8,8,5.7c4.9,1.4,9.8,2.8,14.8,3.8c12.4,2.4,25,3.8,37.5,5c20,2,40.2,3.2,60.3,4.4c9.3,0.5,18.5,0.8,27.9,1.2
	c6.1,0.3,12.1,0.4,18.2,0.6c13.9,0.4,27.8,0.8,41.7,1.1c10.9,0.2,21.7,0.3,32.6,0.2c5.8,0,11.5-0.1,17.3-0.1
	c5.8,0,11.5,0.1,17.3,0.1c10.9,0.1,21.7,0,32.6-0.2c13.9-0.3,27.8-0.7,41.7-1.1c6.1-0.2,12.1-0.3,18.2-0.6
	c9.3-0.4,18.6-0.7,27.9-1.2c20.1-1.2,40.3-2.4,60.3-4.4c12.5-1.2,25.1-2.6,37.5-5c5-1,9.9-2.4,14.8-3.8c3.2-0.9,6.1-2.8,8-5.7
	c1.1-2.5-0.1-5.3,0.7-7.8C936.1,876.3,936.3,875.2,936.3,874.2z M426.2,849.2c2.6-1.2,5.2-2.6,7.9-3.3c6.2-1.5,12.5-2.9,18.8-3.9
	c3.7-0.6,7.4-1.1,11.1-1.6c15.2-2,30.4-3.3,45.6-4.4c26-1.9,52-3,78.1-3.9c5.2-0.2,10.3-0.3,15.5-0.4c19.7-0.5,39.4-0.8,59.1-0.9
	c0.4,0,0.9,0,1.3,0c4.4,0,8.8,0,13.2,0c4.4,0,8.8,0,13.2,0c0.4,0,0.9,0,1.3,0c19.7,0.1,39.4,0.4,59.1,0.9c5.2,0.1,10.3,0.3,15.5,0.4
	c26.1,0.9,52.1,2,78.1,3.9c15.2,1.1,30.4,2.4,45.6,4.4c3.7,0.5,7.4,1,11.1,1.6c6.3,1,12.6,2.4,18.8,3.9c2.7,0.7,5.3,2.1,7.9,3.3
	c1.4,0.7,1.3,2.2-0.1,3c-1.5,0.8-3.1,1.7-4.8,2.1c-5.1,1.3-10.2,2.8-15.4,3.7c-13.7,2.4-27.5,3.8-41.4,5.1
	c-22.3,2.1-44.7,3.3-67,4.3c-15,0.7-30.1,1-45.1,1.5c-7.8,0.2-15.5,0.4-23.3,0.6c-17.8,0.3-35.6,0.4-53.5,0.5
	c-17.8,0-35.6-0.2-53.5-0.5c-7.8-0.2-15.5-0.3-23.3-0.6c-15-0.5-30.1-0.8-45.1-1.5c-22.3-1-44.7-2.2-67-4.3
	c-13.9-1.3-27.7-2.7-41.4-5.1c-5.2-0.9-10.3-2.4-15.4-3.7c-1.7-0.4-3.3-1.3-4.8-2.1C424.9,851.4,424.8,849.9,426.2,849.2z"/>
				<path class="st15" d="M797.9,898.7c0.5-2.4,1.7-4,2.8-5.7c3.1-4.5,6.5-8.6,10.4-12.4c0.7-0.6,1.5-1.2,2.3-1.6
	c1.4-0.6,3.1,0.7,2.7,2.2c-0.2,0.8-0.5,1.5-0.9,2.1c-2.8,4.1-5.7,8.1-8.5,12.1c-1.6,2.3-3.5,3.5-6.4,3.2
	C799.7,898.6,798.9,898.7,797.9,898.7z"/>
				<path class="st43" d="M826.9,892.5c-1.5-3.6-0.4-6.5,2.1-9c1.3-1.3,2.9-1.4,4.3-0.4c1.5,1,1.9,2.9,0.8,4.6
	C832.5,890.4,830.3,892.4,826.9,892.5z"/>
				<path class="st0" d="M432.8,885.5c-2.5-1.1-4.7-1.9-6.9-2.9c-0.4-0.2-0.7-1-0.7-1.6c0-3.2,0-6.4,0-9.6c0-3.7,0-7.3,0-11.3
	c0.8,0.1,1.4,0,1.9,0.2c7.5,2.9,15.4,4.4,23.2,5.6c14.4,2.3,28.8,3.8,43.3,5.1c20.1,1.7,40.2,2.9,60.3,3.9c58,2.8,116,3.1,174.1,2.3
	c5.1-0.1,10.2-0.3,15.4-0.1c-7.1,0.7-14.2,1.5-21.3,2c-12.4,0.9-24.9,1.6-37.3,2.3c-15.2,0.9-30.3,1.9-45.5,2.4
	c-13.3,0.5-26.5,0.6-39.8,0.3c-12-0.2-23.9-1.1-35.9-1.6c-12.1-0.5-24.3-0.7-36.4-1.3c-11.5-0.6-23-1.5-34.4-2.4
	c-6.2-0.5-12.4-1.1-18.6-2.1c-11.7-1.9-23.3-4.2-34.9-6.4c-0.8-0.1-1.6-0.3-2.3-0.5c-1-0.2-1.5,0.4-1.7,1.2c-0.5,2.7-0.9,5.4-1.4,8
	C433.5,881.1,433.2,883.1,432.8,885.5z"/>
				<path class="st6" d="M587.9,189.2c-2.5,0-4.9,0-7.4,0c-1.7,0-3.2,0.1-4.9,0.2c-2.8,0.2-5.7,0.4-8.5,0.5c-3.9,0.1-8-0.3-11.8,0.3
	c-4.1,0.5-8.2,0.5-12.3,0.6c-2.1,0.1-4.3-0.2-6.2,0.2c-4,0.8-8.2,0.6-12.3,0.7c-1.4,0-2.8-0.1-4.3,0.2c-6.5,1.1-13.2,0.6-19.7,1.4
	c-5.7,0.7-11.5,0.6-17.2,1c-6.2,0.4-12.3,0.9-18.4,1.6c-5.2,0.5-10.2,1.1-15.3,1.7c-1.7,0.3-2.6,0.9-2.7,2c-0.1,0.9-0.1,1.6,0,2.5
	c0.3,1.4,1.3,2,3.4,1.7c7.2-0.9,14.6-1.7,22-2.2c3.4-0.2,6.9-0.6,10.4-0.9c6-0.5,11.8-1.1,17.7-1.5c6.7-0.4,13.6-0.6,20.3-0.9
	c0.5,0,0.9,0,1.3-0.1c4-0.9,8.2-0.6,12.3-0.7c1.3,0,2.6,0.2,3.8-0.1c4.5-0.9,9.1-0.6,13.6-0.7c2.1-0.1,4.1-0.2,6.2-0.3
	c2.7-0.2,5.3-0.4,8-0.5c4.1-0.1,8.4,0.3,12.4-0.2c3.2-0.4,6.4-0.5,9.6-0.6V189.2z"/>
</svg>
